<svg width="221" height="221" viewBox="0 0 221 221" fill="none" xmlns="http://www.w3.org/2000/svg">
<rect width="221" height="221" rx="25" fill="#FFECDA"/>
<path d="M42.4175 115.986C44.7896 115.79 47.1358 115.355 49.42 114.686C49.9223 114.525 50.3592 114.207 50.6656 113.778C50.972 113.348 51.1314 112.832 51.1202 112.304C50.9939 109.7 50.5862 107.117 49.9041 104.601C48.808 99.6012 46.0159 95.1352 42.0016 91.9603C37.6958 89.1947 32.5658 88.0041 27.4821 88.5904C27.2531 88.6104 27.0276 88.6301 26.8021 88.6498C24.4294 88.8457 22.0827 89.2814 19.7978 89.9503C19.2963 90.1115 18.8602 90.4304 18.5545 90.8594C18.2488 91.2885 18.0898 91.8048 18.1012 92.3315C18.2276 94.9358 18.6353 97.5188 19.3173 100.035C20.4122 105.035 23.2031 109.502 27.2164 112.678C31.5239 115.441 36.655 116.629 41.7388 116.04C41.9693 116.024 42.1956 116.006 42.4175 115.986Z" fill="#E5AE7C"/>
<path d="M81.3202 177.441C85.4186 177.217 89.3575 175.778 92.6353 173.307C96.4444 169.889 98.9536 165.259 99.7373 160.202C100.268 157.648 100.517 155.044 100.479 152.437C100.458 151.91 100.266 151.404 99.9341 150.995C99.6019 150.586 99.1463 150.295 98.6353 150.166C96.0885 149.589 93.4858 149.294 90.8744 149.287C89.8673 149.279 88.8678 149.319 87.9078 149.402C83.8096 149.629 79.8715 151.069 76.5949 153.541C72.786 156.959 70.2768 161.59 69.4929 166.647C68.9622 169.201 68.7135 171.805 68.7511 174.412C68.7727 174.939 68.9639 175.444 69.2961 175.854C69.6284 176.263 70.0839 176.554 70.5949 176.683C73.1378 177.257 75.7361 177.551 78.343 177.558C79.359 177.565 80.3602 177.525 81.3202 177.441Z" fill="#E5AE7C"/>
<path d="M50.8719 151.963C54.7574 151.521 58.4821 150.162 61.7383 147.996C63.9516 146.617 66.0068 145 67.8668 143.172C68.2334 142.793 68.4676 142.306 68.5345 141.783C68.6014 141.259 68.4974 140.729 68.2381 140.27C66.8958 138.034 65.3152 135.951 63.5241 134.057C60.1943 130.171 55.6231 127.557 50.5857 126.658C49.4179 126.512 48.2379 126.492 47.0659 126.598C43.1803 127.039 39.4556 128.399 36.1995 130.565C33.9861 131.942 31.9308 133.559 30.0706 135.385C29.7041 135.764 29.4701 136.252 29.4035 136.775C29.3369 137.298 29.4413 137.829 29.7011 138.288C31.0436 140.522 32.6242 142.606 34.4151 144.5C37.7442 148.388 42.3157 151.004 47.354 151.904C47.5334 151.926 47.7001 151.945 47.8757 151.964C48.8724 152.053 49.8752 152.052 50.8719 151.963Z" fill="#E5AE7C"/>
<path d="M52.6353 79.0389C53.0652 79.0013 53.4775 78.8502 53.83 78.6011C54.1824 78.352 54.4625 78.0139 54.6415 77.6212C55.666 75.2242 56.4283 72.7235 56.9153 70.1626C58.1213 65.1914 57.5712 59.956 55.3582 55.344C52.6952 50.9714 48.6011 47.6551 43.7709 45.958C41.3573 44.9734 38.8442 44.2532 36.2755 43.8099C35.7531 43.7322 35.2197 43.8267 34.7558 44.0792C34.292 44.3318 33.9231 44.7286 33.705 45.2095C32.6775 47.6046 31.912 50.1038 31.422 52.6635C30.2175 57.6378 30.771 62.8757 32.9885 67.4884C35.649 71.8587 39.739 75.1745 44.565 76.8736C46.9786 77.8582 49.4917 78.5784 52.0605 79.0217C52.2507 79.05 52.4437 79.0558 52.6353 79.0389Z" fill="#E5AE7C"/>
<path d="M177.42 116.008C175.048 115.812 172.703 115.376 170.419 114.707C169.917 114.547 169.48 114.228 169.173 113.799C168.867 113.37 168.707 112.853 168.719 112.326C168.845 109.722 169.253 107.139 169.935 104.622C171.03 99.623 173.821 95.1569 177.834 91.9814C182.141 89.2171 187.272 88.0284 192.356 88.6171C192.584 88.6369 192.809 88.6566 193.031 88.676C195.404 88.8719 197.75 89.3077 200.035 89.9766C200.537 90.1368 200.973 90.4546 201.28 90.8827C201.586 91.3109 201.746 91.8264 201.736 92.3528C201.61 94.9571 201.202 97.5401 200.52 100.057C199.424 105.056 196.633 109.522 192.619 112.697C188.313 115.463 183.182 116.654 178.098 116.067C177.868 116.047 177.642 116.027 177.42 116.008Z" fill="#E5AE7C"/>
<path d="M138.519 177.464C134.421 177.238 130.482 175.797 127.205 173.325C123.396 169.907 120.887 165.276 120.103 160.219C119.572 157.665 119.323 155.061 119.361 152.454C119.383 151.927 119.574 151.421 119.906 151.012C120.238 150.603 120.694 150.312 121.205 150.183C123.748 149.608 126.346 149.315 128.953 149.308C129.967 149.301 130.967 149.34 131.927 149.424C136.026 149.648 139.967 151.087 143.245 153.558C147.055 156.978 149.564 161.61 150.347 166.67C150.877 169.223 151.126 171.827 151.089 174.435C151.067 174.962 150.875 175.467 150.542 175.877C150.209 176.286 149.753 176.576 149.241 176.705C146.698 177.28 144.1 177.574 141.493 177.581C140.481 177.587 139.48 177.547 138.519 177.464Z" fill="#E5AE7C"/>
<path d="M168.967 151.991C165.079 151.551 161.352 150.191 158.094 148.024C155.88 146.645 153.825 145.028 151.965 143.2C151.598 142.821 151.364 142.334 151.297 141.811C151.23 141.288 151.334 140.757 151.594 140.298C152.936 138.063 154.517 135.979 156.308 134.085C159.636 130.198 164.207 127.582 169.245 126.681C170.413 126.535 171.593 126.515 172.765 126.621C176.65 127.062 180.375 128.422 183.631 130.587C185.845 131.966 187.9 133.584 189.76 135.411C190.128 135.79 190.364 136.277 190.432 136.801C190.5 137.324 190.397 137.856 190.138 138.316C188.795 140.551 187.215 142.634 185.424 144.529C182.095 148.416 177.523 151.031 172.485 151.931C172.306 151.953 172.139 151.972 171.964 151.989C170.967 152.079 169.964 152.08 168.967 151.991Z" fill="#E5AE7C"/>
<path d="M167.202 79.0628C166.772 79.0252 166.36 78.8741 166.007 78.625C165.655 78.3759 165.375 78.0378 165.196 77.645C164.169 75.2487 163.404 72.7484 162.915 70.1877C161.711 65.2152 162.263 59.9794 164.479 55.3679C167.141 50.9961 171.233 47.6797 176.061 45.9814C178.475 44.9969 180.988 44.2766 183.556 43.8333C184.079 43.7548 184.612 43.8487 185.077 44.1006C185.541 44.3525 185.91 44.7489 186.129 45.2296C187.158 47.6275 187.924 50.1298 188.415 52.6927C189.618 57.6647 189.065 62.8998 186.849 67.5106C184.189 71.8815 180.099 75.1979 175.272 76.8975C172.859 77.8821 170.345 78.6023 167.777 79.0456C167.586 79.0739 167.394 79.0797 167.202 79.0628Z" fill="#E5AE7C"/>
<path d="M72.1191 107.806V107.82L72.1194 107.833C72.4058 126.051 90.0846 140.242 111.188 140.242C132.291 140.242 149.974 126.045 150.257 107.833L150.257 107.819V107.806V107.806V107.805V107.805V107.805V107.805V107.805V107.804V107.804V107.804V107.804V107.804V107.803V107.803V107.803V107.803V107.802V107.802V107.802V107.802V107.802V107.801V107.801V107.801V107.801V107.801V107.8V107.8V107.8V107.8V107.8V107.799V107.799V107.799V107.799V107.799V107.798V107.798V107.798V107.798V107.798V107.797V107.797V107.797V107.797V107.796V107.796V107.796V107.796V107.796V107.795V107.795V107.795V107.795V107.795V107.794V107.794V107.794V107.794V107.794V107.793V107.793V107.793V107.793V107.793V107.792V107.792V107.792V107.792V107.792V107.791V107.791V107.791V107.791V107.79V107.79V107.79V107.79V107.79V107.789V107.789V107.789V107.789V107.789V107.788V107.788V107.788V107.788V107.788V107.787V107.787V107.787V107.787V107.787V107.786V107.786V107.786V107.786V107.785V107.785V107.785V107.785V107.785V107.784V107.784V107.784V107.784V107.784V107.783V107.783V107.783V107.783V107.783V107.782V107.782V107.782V107.782V107.782V107.781V107.781V107.781V107.781V107.781V107.78V107.78V107.78V107.78V107.779V107.779V107.779V107.779V107.779V107.778V107.778V107.778V107.778V107.778V107.777V107.777V107.777V107.777V107.777V107.776V107.776V107.776V107.776V107.776V107.775V107.775V107.775V107.775V107.775V107.774V107.774V107.774V107.774V107.773V107.773V107.773V107.773V107.773V107.772V107.772V107.772V107.772V107.772V107.771V107.771V107.771V107.771V107.771V107.77V107.77V107.77V107.77V107.77V107.769V107.769V107.769V107.769V107.769V107.768V107.768V107.768V107.768V107.767V107.767V107.767V107.767V107.767V107.766V107.766V107.766V107.766V107.766V107.765V107.765V107.765V107.765V107.765V107.764V107.764V107.764V107.764V107.764V107.763V107.763V107.763V107.763V107.762V107.762V107.762V107.762V107.762V107.761V107.761V107.761V107.761V107.761V107.76V107.76V107.76V107.76V107.76V107.759V107.759V107.759V107.759V107.759V107.758V107.758V107.758V107.758V107.758V107.757V107.757V107.757V107.757V107.756V107.756V107.756V107.756V107.756V107.755V107.755V107.755V107.755V107.755V107.754V107.754V107.754V107.754V107.754V107.753V107.753V107.753V107.753V107.753V107.752V107.752V107.752V107.752V107.752V107.751V107.751V107.751V107.751V107.75V107.75V107.75V107.75V107.75V107.749V107.749V107.749V107.749V107.749V107.748V107.748V107.748V107.748V107.748V107.747V107.747V107.747V107.747V107.747V107.746V107.746V107.746V107.746V107.745V107.745V107.745V107.745V107.745V107.744V107.744V107.744V107.744V107.744V107.743V107.743V107.743V107.743V107.743V107.742V107.742V107.742V107.742V107.742V107.741V107.741V107.741V107.741V107.741V107.74V107.74V107.74V107.74V107.739V107.739V107.739V107.739V107.739V107.738V107.738V107.738V107.738V107.738V107.737V107.737V107.737V107.737V107.737V107.736V107.736V107.736V107.736V107.736V107.735V107.735V107.735V107.735V107.735V107.734V107.734V107.734V107.734V107.733V107.733V107.733V107.733V107.733V107.732V107.732V107.732V107.732V107.732V107.731V107.731V107.731V107.731V107.731V107.73V107.73V107.73V107.73V107.73V107.729V107.729V107.729V107.729V107.729V107.728V107.728V107.728V107.728V107.727V107.727V107.727V107.727V107.727V107.726V107.726V107.726V107.726V107.726V107.725V107.725V107.725V107.725V107.725V107.724V107.724V107.724V107.724V107.724V107.723V107.723V107.723V107.723V107.722V107.722V107.722V107.722V107.722V107.721V107.721V107.721V107.721V107.721V107.72V107.72V107.72V107.72V107.72V107.719V107.719V107.719V107.719V107.719V107.718V107.718V107.718V107.718V107.718V107.717V107.717V107.717V107.717V107.716V107.716V107.716V107.716V107.716V107.715V107.715V107.715V107.715V107.715V107.714V107.714V107.714V107.714V107.714V107.713V107.713V107.713V107.713V107.713V107.712V107.712V107.712V107.712V107.712V107.711V107.711V107.711V107.711V107.71V107.71V107.71V107.71V107.71V107.709V107.709V107.709V107.709V107.709V107.708V107.708V107.708V107.708V107.708V107.707V107.707V107.707V107.707V107.707V107.706V107.706V107.706V107.706V107.705V107.705V107.705V107.705V107.705V107.704V107.704V107.704V107.704V107.704V107.703V107.703V107.703V107.703V107.703V107.702V107.702V107.702V107.702V107.702V107.701V107.701V107.701V107.701V107.701V107.7V107.7V107.7V107.7V57.3351C150.257 56.4019 149.886 55.5069 149.226 54.847C148.566 54.1871 147.672 53.8164 146.738 53.8164H75.6378C74.7046 53.8164 73.8096 54.1871 73.1497 54.847C72.4899 55.5069 72.1191 56.4019 72.1191 57.3351V107.7V107.7V107.7V107.7V107.701V107.701V107.701V107.701V107.701V107.702V107.702V107.702V107.702V107.702V107.703V107.703V107.703V107.703V107.703V107.704V107.704V107.704V107.704V107.704V107.705V107.705V107.705V107.705V107.705V107.706V107.706V107.706V107.706V107.707V107.707V107.707V107.707V107.707V107.708V107.708V107.708V107.708V107.708V107.709V107.709V107.709V107.709V107.709V107.71V107.71V107.71V107.71V107.71V107.711V107.711V107.711V107.711V107.712V107.712V107.712V107.712V107.712V107.713V107.713V107.713V107.713V107.713V107.714V107.714V107.714V107.714V107.714V107.715V107.715V107.715V107.715V107.715V107.716V107.716V107.716V107.716V107.716V107.717V107.717V107.717V107.717V107.718V107.718V107.718V107.718V107.718V107.719V107.719V107.719V107.719V107.719V107.72V107.72V107.72V107.72V107.72V107.721V107.721V107.721V107.721V107.721V107.722V107.722V107.722V107.722V107.722V107.723V107.723V107.723V107.723V107.724V107.724V107.724V107.724V107.724V107.725V107.725V107.725V107.725V107.725V107.726V107.726V107.726V107.726V107.726V107.727V107.727V107.727V107.727V107.727V107.728V107.728V107.728V107.728V107.729V107.729V107.729V107.729V107.729V107.73V107.73V107.73V107.73V107.73V107.731V107.731V107.731V107.731V107.731V107.732V107.732V107.732V107.732V107.732V107.733V107.733V107.733V107.733V107.733V107.734V107.734V107.734V107.734V107.735V107.735V107.735V107.735V107.735V107.736V107.736V107.736V107.736V107.736V107.737V107.737V107.737V107.737V107.737V107.738V107.738V107.738V107.738V107.738V107.739V107.739V107.739V107.739V107.739V107.74V107.74V107.74V107.74V107.741V107.741V107.741V107.741V107.741V107.742V107.742V107.742V107.742V107.742V107.743V107.743V107.743V107.743V107.743V107.744V107.744V107.744V107.744V107.744V107.745V107.745V107.745V107.745V107.745V107.746V107.746V107.746V107.746V107.747V107.747V107.747V107.747V107.747V107.748V107.748V107.748V107.748V107.748V107.749V107.749V107.749V107.749V107.749V107.75V107.75V107.75V107.75V107.75V107.751V107.751V107.751V107.751V107.752V107.752V107.752V107.752V107.752V107.753V107.753V107.753V107.753V107.753V107.754V107.754V107.754V107.754V107.754V107.755V107.755V107.755V107.755V107.755V107.756V107.756V107.756V107.756V107.756V107.757V107.757V107.757V107.757V107.758V107.758V107.758V107.758V107.758V107.759V107.759V107.759V107.759V107.759V107.76V107.76V107.76V107.76V107.76V107.761V107.761V107.761V107.761V107.761V107.762V107.762V107.762V107.762V107.762V107.763V107.763V107.763V107.763V107.764V107.764V107.764V107.764V107.764V107.765V107.765V107.765V107.765V107.765V107.766V107.766V107.766V107.766V107.766V107.767V107.767V107.767V107.767V107.767V107.768V107.768V107.768V107.768V107.769V107.769V107.769V107.769V107.769V107.77V107.77V107.77V107.77V107.77V107.771V107.771V107.771V107.771V107.771V107.772V107.772V107.772V107.772V107.772V107.773V107.773V107.773V107.773V107.773V107.774V107.774V107.774V107.774V107.775V107.775V107.775V107.775V107.775V107.776V107.776V107.776V107.776V107.776V107.777V107.777V107.777V107.777V107.777V107.778V107.778V107.778V107.778V107.778V107.779V107.779V107.779V107.779V107.779V107.78V107.78V107.78V107.78V107.781V107.781V107.781V107.781V107.781V107.782V107.782V107.782V107.782V107.782V107.783V107.783V107.783V107.783V107.783V107.784V107.784V107.784V107.784V107.784V107.785V107.785V107.785V107.785V107.785V107.786V107.786V107.786V107.786V107.787V107.787V107.787V107.787V107.787V107.788V107.788V107.788V107.788V107.788V107.789V107.789V107.789V107.789V107.789V107.79V107.79V107.79V107.79V107.79V107.791V107.791V107.791V107.791V107.792V107.792V107.792V107.792V107.792V107.793V107.793V107.793V107.793V107.793V107.794V107.794V107.794V107.794V107.794V107.795V107.795V107.795V107.795V107.795V107.796V107.796V107.796V107.796V107.796V107.797V107.797V107.797V107.797V107.798V107.798V107.798V107.798V107.798V107.799V107.799V107.799V107.799V107.799V107.8V107.8V107.8V107.8V107.8V107.801V107.801V107.801V107.801V107.801V107.802V107.802V107.802V107.802V107.802V107.803V107.803V107.803V107.803V107.804V107.804V107.804V107.804V107.804V107.805V107.805V107.805V107.805V107.805V107.806V107.806Z" fill="#CF9C6D" stroke="#CF9C6D" stroke-width="3.5"/>
<path d="M74.8203 114.385L133.646 55.5586H146.734C147.203 55.5586 147.653 55.7449 147.985 56.0766C148.317 56.4083 148.503 56.8582 148.503 57.3273V65.5993L84.762 129.342C80.0021 125.485 76.5335 120.267 74.8203 114.385H74.8203Z" fill="#E6B68B"/>
<path d="M95.6288 85.5636H95.3123C94.9255 86.676 94.486 87.94 93.9938 89.3557C93.5016 90.7377 92.9741 92.1871 92.4116 93.7039C91.8842 95.2207 91.3919 96.7038 90.9348 98.1532L90.0383 102.198C89.8273 102.838 89.6163 103.529 89.4054 104.271C89.1944 105.013 88.9659 105.737 88.7197 106.445C88.5088 107.153 88.2978 107.844 88.0868 108.518C87.911 109.159 87.7528 109.732 87.6122 110.237C87.2254 110.372 86.8035 110.49 86.3464 110.591C85.8893 110.692 85.3268 110.743 84.6587 110.743C83.3226 110.743 82.2854 110.507 81.547 110.035C80.8086 109.529 80.4395 108.821 80.4395 107.911C80.4395 107.507 80.5098 107.102 80.6504 106.698C80.7911 106.26 80.9317 105.771 81.0723 105.232C81.4239 104.119 81.881 102.72 82.4436 101.035C83.0413 99.3498 83.6918 97.5296 84.395 95.5746C85.0982 93.5859 85.8014 91.6309 86.5046 89.7096C87.243 87.7546 87.9286 85.9513 88.5615 84.2996C89.1944 82.648 89.7218 81.3166 90.1437 80.3054C90.636 80.0357 91.3743 79.7829 92.3588 79.547C93.3785 79.2773 94.3806 79.1425 95.3651 79.1425C96.7715 79.1425 98.0372 79.3447 99.1624 79.7492C100.288 80.12 100.991 80.7436 101.272 81.6199C101.975 83.4064 102.731 85.4962 103.54 87.8894C104.349 90.2489 105.175 92.7095 106.019 95.2712C106.863 97.833 107.654 100.327 108.392 102.754C109.166 105.181 109.851 107.372 110.449 109.327C110.097 109.732 109.57 110.052 108.867 110.288C108.163 110.557 107.355 110.692 106.441 110.692C105.069 110.692 104.102 110.473 103.54 110.035C102.977 109.563 102.555 108.838 102.274 107.861L100.375 101.844L99.5843 97.9004C99.0921 96.3499 98.5998 94.8162 98.1076 93.2994C97.6153 91.7826 97.1582 90.3669 96.7363 89.0523C96.3144 87.704 95.9452 86.5411 95.6288 85.5636ZM86.7683 103.26L89.6163 97.597H102.274L103.276 103.26H86.7683Z" fill="white"/>
<path d="M133.58 94.3612C133.58 91.8331 133.281 89.7433 132.684 88.0917C132.121 86.44 131.33 85.2097 130.31 84.4008C129.291 83.5918 128.113 83.1873 126.777 83.1873C125.476 83.1873 124.315 83.6086 123.296 84.4513C122.311 85.2603 121.52 86.4906 120.922 88.1422C120.36 89.7939 120.079 91.8668 120.079 94.3612C120.079 98.0689 120.659 100.867 121.819 102.754C122.979 104.608 124.632 105.535 126.777 105.535C128.957 105.535 130.627 104.608 131.787 102.754C132.982 100.867 133.58 98.0689 133.58 94.3612ZM126.829 110.996C124.122 110.996 121.714 110.389 119.604 109.175C117.529 107.928 115.912 106.074 114.752 103.614C113.591 101.153 113.011 98.0689 113.011 94.3612C113.011 90.586 113.627 87.4849 114.857 85.058C116.088 82.5974 117.74 80.7773 119.815 79.5975C121.924 78.3841 124.263 77.7773 126.829 77.7773C129.396 77.7773 131.717 78.3841 133.791 79.5975C135.901 80.7773 137.571 82.5974 138.802 85.058C140.032 87.5187 140.647 90.6197 140.647 94.3612C140.647 98.0352 140.05 101.119 138.854 103.614C137.694 106.074 136.077 107.928 134.002 109.175C131.928 110.389 129.537 110.996 126.829 110.996Z" fill="white"/>
</svg>
