<svg width="221" height="221" viewBox="0 0 221 221" fill="none" xmlns="http://www.w3.org/2000/svg">
<rect width="221" height="221" rx="25" fill="#F9EBFF"/>
<path d="M42.4385 116.042C44.8124 115.846 47.1603 115.41 49.4464 114.741C49.949 114.58 50.3863 114.261 50.6929 113.831C50.9995 113.402 51.1591 112.885 51.1478 112.357C51.0215 109.751 50.6134 107.166 49.9308 104.647C48.8338 99.6442 46.0396 95.1747 42.0222 91.9974C37.7131 89.2297 32.5792 88.0381 27.4915 88.6249C27.2623 88.6449 27.0367 88.6646 26.811 88.6843C24.4365 88.8804 22.0879 89.3164 19.8013 89.9859C19.2994 90.1472 18.863 90.4663 18.557 90.8957C18.2511 91.3251 18.092 91.8418 18.1034 92.3689C18.2298 94.9752 18.6379 97.5602 19.3204 100.079C20.4162 105.082 23.2092 109.552 27.2257 112.731C31.5365 115.497 36.6715 116.686 41.7593 116.096C41.9899 116.079 42.2163 116.061 42.4385 116.042Z" fill="#EABCFE"/>
<path d="M81.3667 177.543C85.4682 177.319 89.4101 175.879 92.6905 173.407C96.5025 169.986 99.0136 165.352 99.798 160.29C100.329 157.735 100.578 155.129 100.54 152.52C100.519 151.993 100.327 151.487 99.9949 151.077C99.6624 150.668 99.2065 150.376 98.6951 150.247C96.1463 149.67 93.5416 149.375 90.9282 149.368C89.9203 149.36 88.9201 149.399 87.9593 149.483C83.8579 149.709 79.9168 151.151 76.6377 153.625C72.8258 157.046 70.3147 161.68 69.5302 166.741C68.9991 169.297 68.7502 171.902 68.7878 174.512C68.8094 175.039 69.0007 175.545 69.3332 175.955C69.6658 176.364 70.1217 176.655 70.6331 176.785C73.1779 177.359 75.7782 177.653 78.3871 177.66C79.4039 177.667 80.4058 177.627 81.3667 177.543Z" fill="#EABCFE"/>
<path d="M50.897 152.051C54.7856 151.609 58.5132 150.249 61.7718 148.081C63.9869 146.702 66.0436 145.083 67.9051 143.254C68.2719 142.874 68.5063 142.387 68.5733 141.863C68.6402 141.34 68.5362 140.808 68.2766 140.349C66.9333 138.112 65.3515 136.027 63.559 134.131C60.2269 130.242 55.652 127.626 50.6104 126.725C49.4418 126.579 48.2609 126.559 47.0879 126.665C43.1994 127.107 39.4718 128.468 36.2131 130.635C33.998 132.013 31.9412 133.631 30.0796 135.459C29.7128 135.838 29.4786 136.326 29.4119 136.85C29.3453 137.373 29.4498 137.904 29.7098 138.364C31.0533 140.6 32.6351 142.685 34.4274 144.581C37.759 148.472 42.3341 151.09 47.3763 151.991C47.5558 152.013 47.7227 152.032 47.8984 152.05C48.8959 152.14 49.8995 152.14 50.897 152.051Z" fill="#EABCFE"/>
<path d="M52.6629 79.0696C53.0932 79.0319 53.5058 78.8807 53.8585 78.6315C54.2112 78.3822 54.4915 78.0438 54.6706 77.6507C55.6959 75.2519 56.4588 72.7493 56.9462 70.1865C58.1531 65.2114 57.6026 59.972 55.3878 55.3564C52.7228 50.9804 48.6256 47.6616 43.7917 45.9631C41.3762 44.9778 38.8611 44.2571 36.2904 43.8134C35.7677 43.7356 35.2338 43.8302 34.7696 44.0829C34.3055 44.3357 33.9363 44.7328 33.718 45.2141C32.6897 47.611 31.9236 50.1122 31.4332 52.6738C30.2278 57.652 30.7817 62.8939 33.0009 67.5102C35.6635 71.8838 39.7566 75.2022 44.5864 76.9026C47.0018 77.888 49.5169 78.6087 52.0876 79.0524C52.278 79.0807 52.4711 79.0865 52.6629 79.0696Z" fill="#EABCFE"/>
<path d="M177.549 116.071C175.176 115.874 172.828 115.438 170.543 114.769C170.04 114.609 169.603 114.29 169.296 113.86C168.99 113.431 168.83 112.914 168.841 112.386C168.968 109.78 169.376 107.195 170.058 104.676C171.154 99.6733 173.947 95.2038 177.964 92.0258C182.274 89.2594 187.409 88.0698 192.497 88.6589C192.725 88.6788 192.95 88.6985 193.172 88.7179C195.547 88.9139 197.896 89.35 200.182 90.0194C200.684 90.1798 201.121 90.4979 201.427 90.9263C201.734 91.3548 201.894 91.8707 201.884 92.3975C201.758 95.0038 201.35 97.5888 200.667 100.107C199.571 105.11 196.777 109.58 192.76 112.757C188.451 115.526 183.316 116.717 178.228 116.13C177.997 116.11 177.771 116.09 177.549 116.071Z" fill="#EABCFE"/>
<path d="M138.621 177.574C134.52 177.347 130.578 175.905 127.298 173.432C123.486 170.011 120.975 165.377 120.19 160.316C119.659 157.761 119.41 155.155 119.448 152.545C119.47 152.018 119.661 151.512 119.994 151.102C120.326 150.693 120.782 150.402 121.293 150.272C123.838 149.697 126.438 149.404 129.047 149.397C130.062 149.39 131.063 149.429 132.023 149.513C136.126 149.737 140.07 151.177 143.351 153.651C147.164 157.073 149.675 161.709 150.458 166.772C150.989 169.327 151.238 171.933 151.2 174.543C151.178 175.07 150.986 175.576 150.653 175.986C150.32 176.395 149.863 176.686 149.351 176.815C146.807 177.39 144.206 177.684 141.597 177.692C140.584 177.698 139.582 177.658 138.621 177.574Z" fill="#EABCFE"/>
<path d="M169.088 152.08C165.197 151.639 161.467 150.278 158.206 148.11C155.991 146.73 153.935 145.111 152.073 143.282C151.706 142.903 151.472 142.415 151.405 141.891C151.338 141.368 151.442 140.837 151.702 140.377C153.045 138.14 154.627 136.056 156.419 134.16C159.75 130.269 164.325 127.651 169.366 126.75C170.535 126.604 171.716 126.584 172.889 126.69C176.777 127.131 180.505 128.492 183.764 130.659C185.979 132.039 188.036 133.658 189.897 135.487C190.266 135.866 190.502 136.353 190.57 136.878C190.638 137.402 190.535 137.934 190.275 138.394C188.932 140.631 187.35 142.716 185.558 144.612C182.226 148.502 177.651 151.119 172.609 152.02C172.43 152.041 172.263 152.061 172.087 152.077C171.09 152.168 170.086 152.169 169.088 152.08Z" fill="#EABCFE"/>
<path d="M167.323 79.0966C166.893 79.059 166.48 78.9078 166.128 78.6585C165.775 78.4092 165.495 78.0708 165.316 77.6778C164.288 75.2796 163.523 72.7773 163.033 70.2146C161.828 65.2384 162.381 59.9984 164.598 55.3834C167.262 51.0082 171.357 47.6893 176.189 45.9897C178.605 45.0044 181.12 44.2836 183.69 43.84C184.213 43.7614 184.747 43.8553 185.212 44.1074C185.676 44.3596 186.046 44.7562 186.265 45.2373C187.295 47.637 188.062 50.1412 188.552 52.7061C189.756 57.682 189.203 62.9211 186.985 67.5355C184.323 71.9098 180.23 75.2288 175.4 76.9297C172.984 77.915 170.469 78.6358 167.899 79.0794C167.708 79.1077 167.515 79.1135 167.323 79.0966Z" fill="#EABCFE"/>
<path d="M72.166 110.602V110.616L72.1662 110.629C72.4529 128.86 90.1463 143.062 111.264 143.062C132.381 143.062 150.078 128.855 150.361 110.629L150.361 110.616V110.602V110.602V110.602V110.601V110.601V110.601V110.601V110.601V110.6V110.6V110.6V110.6V110.599V110.599V110.599V110.599V110.599V110.598V110.598V110.598V110.598V110.598V110.597V110.597V110.597V110.597V110.597V110.596V110.596V110.596V110.596V110.596V110.595V110.595V110.595V110.595V110.595V110.594V110.594V110.594V110.594V110.593V110.593V110.593V110.593V110.593V110.592V110.592V110.592V110.592V110.592V110.591V110.591V110.591V110.591V110.591V110.59V110.59V110.59V110.59V110.59V110.589V110.589V110.589V110.589V110.588V110.588V110.588V110.588V110.588V110.587V110.587V110.587V110.587V110.587V110.586V110.586V110.586V110.586V110.586V110.585V110.585V110.585V110.585V110.585V110.584V110.584V110.584V110.584V110.584V110.583V110.583V110.583V110.583V110.582V110.582V110.582V110.582V110.582V110.581V110.581V110.581V110.581V110.581V110.58V110.58V110.58V110.58V110.58V110.579V110.579V110.579V110.579V110.579V110.578V110.578V110.578V110.578V110.577V110.577V110.577V110.577V110.577V110.576V110.576V110.576V110.576V110.576V110.575V110.575V110.575V110.575V110.575V110.574V110.574V110.574V110.574V110.574V110.573V110.573V110.573V110.573V110.573V110.572V110.572V110.572V110.572V110.571V110.571V110.571V110.571V110.571V110.57V110.57V110.57V110.57V110.57V110.569V110.569V110.569V110.569V110.569V110.568V110.568V110.568V110.568V110.568V110.567V110.567V110.567V110.567V110.567V110.566V110.566V110.566V110.566V110.565V110.565V110.565V110.565V110.565V110.564V110.564V110.564V110.564V110.564V110.563V110.563V110.563V110.563V110.563V110.562V110.562V110.562V110.562V110.562V110.561V110.561V110.561V110.561V110.56V110.56V110.56V110.56V110.56V110.559V110.559V110.559V110.559V110.559V110.558V110.558V110.558V110.558V110.558V110.557V110.557V110.557V110.557V110.557V110.556V110.556V110.556V110.556V110.556V110.555V110.555V110.555V110.555V110.554V110.554V110.554V110.554V110.554V110.553V110.553V110.553V110.553V110.553V110.552V110.552V110.552V110.552V110.552V110.551V110.551V110.551V110.551V110.551V110.55V110.55V110.55V110.55V110.549V110.549V110.549V110.549V110.549V110.548V110.548V110.548V110.548V110.548V110.547V110.547V110.547V110.547V110.547V110.546V110.546V110.546V110.546V110.546V110.545V110.545V110.545V110.545V110.545V110.544V110.544V110.544V110.544V110.543V110.543V110.543V110.543V110.543V110.542V110.542V110.542V110.542V110.542V110.541V110.541V110.541V110.541V110.541V110.54V110.54V110.54V110.54V110.54V110.539V110.539V110.539V110.539V110.539V110.538V110.538V110.538V110.538V110.537V110.537V110.537V110.537V110.537V110.536V110.536V110.536V110.536V110.536V110.535V110.535V110.535V110.535V110.535V110.534V110.534V110.534V110.534V110.534V110.533V110.533V110.533V110.533V110.532V110.532V110.532V110.532V110.532V110.531V110.531V110.531V110.531V110.531V110.53V110.53V110.53V110.53V110.53V110.529V110.529V110.529V110.529V110.529V110.528V110.528V110.528V110.528V110.528V110.527V110.527V110.527V110.527V110.526V110.526V110.526V110.526V110.526V110.525V110.525V110.525V110.525V110.525V110.524V110.524V110.524V110.524V110.524V110.523V110.523V110.523V110.523V110.523V110.522V110.522V110.522V110.522V110.521V110.521V110.521V110.521V110.521V110.52V110.52V110.52V110.52V110.52V110.519V110.519V110.519V110.519V110.519V110.518V110.518V110.518V110.518V110.518V110.517V110.517V110.517V110.517V110.517V110.516V110.516V110.516V110.516V110.515V110.515V110.515V110.515V110.515V110.514V110.514V110.514V110.514V110.514V110.513V110.513V110.513V110.513V110.513V110.512V110.512V110.512V110.512V110.512V110.511V110.511V110.511V110.511V110.511V110.51V110.51V110.51V110.51V110.509V110.509V110.509V110.509V110.509V110.508V110.508V110.508V110.508V110.508V110.507V110.507V110.507V110.507V110.507V110.506V110.506V110.506V110.506V110.506V110.505V110.505V110.505V110.505V110.504V110.504V110.504V110.504V110.504V110.503V110.503V110.503V110.503V110.503V110.502V110.502V110.502V110.502V110.502V110.501V110.501V110.501V110.501V110.501V110.5V110.5V110.5V110.5V110.5V110.499V110.499V110.499V110.499V110.498V110.498V110.498V110.498V110.498V110.497V110.497V110.497V110.497V110.497V110.496V110.496V110.496V110.496V60.0923C150.361 59.1587 149.991 58.2634 149.33 57.6033C148.67 56.9431 147.775 56.5723 146.841 56.5723H75.686C74.7525 56.5723 73.8571 56.9431 73.197 57.6033C72.5369 58.2634 72.166 59.1587 72.166 60.0923V110.496V110.496V110.496V110.496V110.497V110.497V110.497V110.497V110.497V110.498V110.498V110.498V110.498V110.498V110.499V110.499V110.499V110.499V110.5V110.5V110.5V110.5V110.5V110.501V110.501V110.501V110.501V110.501V110.502V110.502V110.502V110.502V110.502V110.503V110.503V110.503V110.503V110.503V110.504V110.504V110.504V110.504V110.504V110.505V110.505V110.505V110.505V110.506V110.506V110.506V110.506V110.506V110.507V110.507V110.507V110.507V110.507V110.508V110.508V110.508V110.508V110.508V110.509V110.509V110.509V110.509V110.509V110.51V110.51V110.51V110.51V110.511V110.511V110.511V110.511V110.511V110.512V110.512V110.512V110.512V110.512V110.513V110.513V110.513V110.513V110.513V110.514V110.514V110.514V110.514V110.514V110.515V110.515V110.515V110.515V110.515V110.516V110.516V110.516V110.516V110.517V110.517V110.517V110.517V110.517V110.518V110.518V110.518V110.518V110.518V110.519V110.519V110.519V110.519V110.519V110.52V110.52V110.52V110.52V110.52V110.521V110.521V110.521V110.521V110.521V110.522V110.522V110.522V110.522V110.523V110.523V110.523V110.523V110.523V110.524V110.524V110.524V110.524V110.524V110.525V110.525V110.525V110.525V110.525V110.526V110.526V110.526V110.526V110.526V110.527V110.527V110.527V110.527V110.528V110.528V110.528V110.528V110.528V110.529V110.529V110.529V110.529V110.529V110.53V110.53V110.53V110.53V110.53V110.531V110.531V110.531V110.531V110.531V110.532V110.532V110.532V110.532V110.532V110.533V110.533V110.533V110.533V110.534V110.534V110.534V110.534V110.534V110.535V110.535V110.535V110.535V110.535V110.536V110.536V110.536V110.536V110.536V110.537V110.537V110.537V110.537V110.537V110.538V110.538V110.538V110.538V110.539V110.539V110.539V110.539V110.539V110.54V110.54V110.54V110.54V110.54V110.541V110.541V110.541V110.541V110.541V110.542V110.542V110.542V110.542V110.542V110.543V110.543V110.543V110.543V110.543V110.544V110.544V110.544V110.544V110.545V110.545V110.545V110.545V110.545V110.546V110.546V110.546V110.546V110.546V110.547V110.547V110.547V110.547V110.547V110.548V110.548V110.548V110.548V110.548V110.549V110.549V110.549V110.549V110.549V110.55V110.55V110.55V110.55V110.551V110.551V110.551V110.551V110.551V110.552V110.552V110.552V110.552V110.552V110.553V110.553V110.553V110.553V110.553V110.554V110.554V110.554V110.554V110.554V110.555V110.555V110.555V110.555V110.556V110.556V110.556V110.556V110.556V110.557V110.557V110.557V110.557V110.557V110.558V110.558V110.558V110.558V110.558V110.559V110.559V110.559V110.559V110.559V110.56V110.56V110.56V110.56V110.56V110.561V110.561V110.561V110.561V110.562V110.562V110.562V110.562V110.562V110.563V110.563V110.563V110.563V110.563V110.564V110.564V110.564V110.564V110.564V110.565V110.565V110.565V110.565V110.565V110.566V110.566V110.566V110.566V110.567V110.567V110.567V110.567V110.567V110.568V110.568V110.568V110.568V110.568V110.569V110.569V110.569V110.569V110.569V110.57V110.57V110.57V110.57V110.57V110.571V110.571V110.571V110.571V110.571V110.572V110.572V110.572V110.572V110.573V110.573V110.573V110.573V110.573V110.574V110.574V110.574V110.574V110.574V110.575V110.575V110.575V110.575V110.575V110.576V110.576V110.576V110.576V110.576V110.577V110.577V110.577V110.577V110.577V110.578V110.578V110.578V110.578V110.579V110.579V110.579V110.579V110.579V110.58V110.58V110.58V110.58V110.58V110.581V110.581V110.581V110.581V110.581V110.582V110.582V110.582V110.582V110.582V110.583V110.583V110.583V110.583V110.584V110.584V110.584V110.584V110.584V110.585V110.585V110.585V110.585V110.585V110.586V110.586V110.586V110.586V110.586V110.587V110.587V110.587V110.587V110.587V110.588V110.588V110.588V110.588V110.588V110.589V110.589V110.589V110.589V110.59V110.59V110.59V110.59V110.59V110.591V110.591V110.591V110.591V110.591V110.592V110.592V110.592V110.592V110.592V110.593V110.593V110.593V110.593V110.593V110.594V110.594V110.594V110.594V110.595V110.595V110.595V110.595V110.595V110.596V110.596V110.596V110.596V110.596V110.597V110.597V110.597V110.597V110.597V110.598V110.598V110.598V110.598V110.598V110.599V110.599V110.599V110.599V110.599V110.6V110.6V110.6V110.6V110.601V110.601V110.601V110.601V110.601V110.602V110.602V110.602Z" fill="#CE82FF" stroke="#CE82FF" stroke-width="3.5"/>
<path d="M74.8652 117.19L133.737 58.3184H146.835C147.304 58.3184 147.754 58.5048 148.086 58.8368C148.418 59.1687 148.605 59.619 148.605 60.0884V68.3668L84.8146 132.159C80.051 128.299 76.5798 123.076 74.8652 117.19Z" fill="#DDA4FF"/>
<path d="M103.457 85.825H103.11C102.685 87.0662 102.203 88.4767 101.662 90.0565C101.122 91.5986 100.543 93.216 99.9248 94.9086C99.3457 96.6012 98.8052 98.2562 98.3034 99.8735L97.3189 104.387C97.0872 105.102 96.8556 105.873 96.624 106.7C96.3923 107.528 96.1414 108.337 95.8711 109.126C95.6395 109.916 95.4079 110.687 95.1762 111.44C94.9832 112.154 94.8095 112.794 94.655 113.358C94.2304 113.508 93.7671 113.64 93.2652 113.753C92.7633 113.866 92.1456 113.922 91.4121 113.922C89.945 113.922 88.8061 113.659 87.9954 113.132C87.1847 112.568 86.7793 111.778 86.7793 110.763C86.7793 110.311 86.8565 109.86 87.0109 109.409C87.1654 108.92 87.3198 108.374 87.4742 107.772C87.8603 106.531 88.3622 104.97 88.9799 103.089C89.6362 101.209 90.3504 99.1777 91.1225 96.9961C91.8947 94.7769 92.6668 92.5954 93.4389 90.4514C94.2497 88.2698 95.0025 86.2575 95.6974 84.4145C96.3923 82.5714 96.9714 81.0857 97.4347 79.9573C97.9752 79.6564 98.7859 79.3743 99.8669 79.111C100.987 78.8101 102.087 78.6597 103.168 78.6597C104.712 78.6597 106.102 78.8853 107.337 79.3367C108.573 79.7504 109.345 80.4463 109.654 81.4242C110.426 83.4177 111.256 85.7498 112.144 88.4203C113.032 91.0532 113.939 93.799 114.866 96.6576C115.792 99.5162 116.661 102.3 117.472 105.008C118.321 107.716 119.074 110.161 119.73 112.342C119.344 112.794 118.765 113.151 117.993 113.414C117.221 113.715 116.333 113.866 115.329 113.866C113.823 113.866 112.762 113.621 112.144 113.132C111.526 112.606 111.063 111.797 110.754 110.706L108.669 103.992L107.801 99.5914C107.26 97.8612 106.72 96.1498 106.179 94.4572C105.639 92.7646 105.137 91.1849 104.673 89.718C104.21 88.2134 103.805 86.9158 103.457 85.825ZM93.7285 105.572L96.8556 99.2529H110.754L111.854 105.572H93.7285Z" fill="white"/>
<path d="M136.014 103.202H128.37V85.0915L121.594 87.6868C121.015 87.3859 120.494 86.9722 120.031 86.4456C119.568 85.8814 119.336 85.1291 119.336 84.1888C119.336 82.421 120.456 81.1421 122.695 80.3522L130.165 77.5312H131.844C133.157 77.5312 134.18 77.9074 134.914 78.6597C135.647 79.3743 136.014 80.3711 136.014 81.6499V103.202ZM128.37 97.9553H136.014V113.358C135.705 113.433 135.242 113.527 134.624 113.64C134.006 113.753 133.331 113.809 132.597 113.809C131.13 113.809 130.049 113.565 129.354 113.076C128.698 112.549 128.37 111.628 128.37 110.311V97.9553Z" fill="white"/>
</svg>
