<svg width="221" height="221" viewBox="0 0 221 221" fill="none" xmlns="http://www.w3.org/2000/svg">
<rect width="221" height="221" rx="25" fill="#D2FFEE"/>
<path d="M42.4175 118.986C44.7896 118.79 47.1358 118.355 49.42 117.686C49.9223 117.525 50.3592 117.207 50.6656 116.778C50.972 116.348 51.1314 115.832 51.1202 115.304C50.9939 112.7 50.5862 110.117 49.9041 107.601C48.808 102.601 46.0159 98.1352 42.0016 94.9603C37.6958 92.1947 32.5658 91.0041 27.4821 91.5904C27.2531 91.6104 27.0276 91.6301 26.8021 91.6498C24.4294 91.8457 22.0827 92.2814 19.7978 92.9503C19.2963 93.1115 18.8602 93.4304 18.5545 93.8594C18.2488 94.2885 18.0898 94.8048 18.1012 95.3315C18.2276 97.9358 18.6353 100.519 19.3173 103.035C20.4122 108.035 23.2031 112.502 27.2164 115.678C31.5239 118.441 36.655 119.629 41.7388 119.04C41.9693 119.024 42.1956 119.006 42.4175 118.986Z" fill="#6CDFB3"/>
<path d="M81.3202 180.441C85.4186 180.217 89.3575 178.778 92.6353 176.307C96.4444 172.889 98.9536 168.259 99.7373 163.202C100.268 160.648 100.517 158.044 100.479 155.437C100.458 154.91 100.266 154.404 99.9341 153.995C99.6019 153.586 99.1463 153.295 98.6353 153.166C96.0885 152.589 93.4858 152.294 90.8744 152.287C89.8673 152.279 88.8678 152.319 87.9078 152.402C83.8096 152.629 79.8715 154.069 76.5949 156.541C72.786 159.959 70.2768 164.59 69.4929 169.647C68.9622 172.201 68.7135 174.805 68.7511 177.412C68.7727 177.939 68.9639 178.444 69.2961 178.854C69.6284 179.263 70.0839 179.554 70.5949 179.683C73.1378 180.257 75.7361 180.551 78.343 180.558C79.359 180.565 80.3602 180.525 81.3202 180.441Z" fill="#6CDFB3"/>
<path d="M50.8719 154.963C54.7574 154.521 58.4821 153.162 61.7383 150.996C63.9516 149.617 66.0068 148 67.8668 146.172C68.2334 145.793 68.4676 145.306 68.5345 144.783C68.6014 144.259 68.4974 143.729 68.2381 143.27C66.8958 141.034 65.3152 138.951 63.5241 137.057C60.1943 133.171 55.6231 130.557 50.5857 129.658C49.4179 129.512 48.2379 129.492 47.0659 129.598C43.1803 130.039 39.4556 131.399 36.1995 133.565C33.9861 134.942 31.9308 136.559 30.0706 138.385C29.7041 138.764 29.4701 139.252 29.4035 139.775C29.3369 140.298 29.4413 140.829 29.7011 141.288C31.0436 143.522 32.6242 145.606 34.4151 147.5C37.7442 151.388 42.3157 154.004 47.354 154.904C47.5334 154.926 47.7001 154.945 47.8757 154.964C48.8724 155.053 49.8752 155.052 50.8719 154.963Z" fill="#6CDFB3"/>
<path d="M52.6353 82.0389C53.0652 82.0013 53.4775 81.8502 53.83 81.6011C54.1824 81.352 54.4625 81.0139 54.6415 80.6212C55.666 78.2242 56.4283 75.7235 56.9153 73.1626C58.1213 68.1914 57.5712 62.956 55.3582 58.344C52.6952 53.9714 48.6011 50.6551 43.7709 48.958C41.3573 47.9734 38.8442 47.2532 36.2755 46.8099C35.7531 46.7322 35.2197 46.8267 34.7558 47.0792C34.292 47.3318 33.9231 47.7286 33.705 48.2095C32.6775 50.6046 31.912 53.1038 31.422 55.6635C30.2175 60.6378 30.771 65.8757 32.9885 70.4884C35.649 74.8587 39.739 78.1745 44.565 79.8736C46.9786 80.8582 49.4917 81.5784 52.0605 82.0217C52.2507 82.05 52.4437 82.0558 52.6353 82.0389Z" fill="#6CDFB3"/>
<path d="M177.42 119.01C175.048 118.814 172.703 118.378 170.419 117.709C169.917 117.549 169.48 117.23 169.173 116.801C168.867 116.372 168.707 115.855 168.719 115.328C168.845 112.723 169.253 110.14 169.935 107.624C171.03 102.625 173.821 98.1589 177.834 94.9833C182.141 92.219 187.272 91.0304 192.356 91.619C192.584 91.6389 192.809 91.6586 193.031 91.678C195.404 91.8739 197.75 92.3096 200.035 92.9785C200.537 93.1388 200.973 93.4566 201.28 93.8847C201.586 94.3128 201.746 94.8284 201.736 95.3547C201.61 97.959 201.202 100.542 200.52 103.059C199.424 108.058 196.633 112.524 192.619 115.699C188.313 118.465 183.182 119.656 178.098 119.069C177.868 119.049 177.642 119.029 177.42 119.01Z" fill="#6CDFB3"/>
<path d="M138.519 180.466C134.421 180.239 130.482 178.799 127.205 176.327C123.396 172.908 120.887 168.278 120.103 163.221C119.572 160.667 119.323 158.063 119.361 155.456C119.383 154.929 119.574 154.423 119.906 154.014C120.238 153.605 120.694 153.314 121.205 153.185C123.748 152.61 126.346 152.317 128.953 152.31C129.967 152.303 130.967 152.342 131.927 152.426C136.026 152.65 139.967 154.089 143.245 156.56C147.055 159.98 149.564 164.612 150.347 169.672C150.877 172.225 151.126 174.829 151.089 177.436C151.067 177.964 150.875 178.469 150.542 178.879C150.209 179.288 149.753 179.578 149.241 179.707C146.698 180.282 144.1 180.576 141.493 180.583C140.481 180.589 139.48 180.549 138.519 180.466Z" fill="#6CDFB3"/>
<path d="M168.967 154.993C165.079 154.553 161.352 153.193 158.094 151.026C155.88 149.647 153.825 148.03 151.965 146.202C151.598 145.823 151.364 145.336 151.297 144.813C151.23 144.289 151.334 143.759 151.594 143.3C152.936 141.064 154.517 138.981 156.308 137.087C159.636 133.2 164.207 130.584 169.245 129.683C170.413 129.537 171.593 129.517 172.765 129.623C176.65 130.064 180.375 131.424 183.631 133.589C185.845 134.968 187.9 136.585 189.76 138.413C190.128 138.792 190.364 139.279 190.432 139.803C190.5 140.326 190.397 140.858 190.138 141.318C188.795 143.553 187.215 145.636 185.424 147.531C182.095 151.418 177.523 154.033 172.485 154.933C172.306 154.955 172.139 154.974 171.964 154.991C170.967 155.081 169.964 155.082 168.967 154.993Z" fill="#6CDFB3"/>
<path d="M167.202 82.0648C166.772 82.0271 166.36 81.8761 166.007 81.627C165.655 81.3779 165.375 81.0397 165.196 80.647C164.169 78.2507 163.404 75.7504 162.915 73.1896C161.711 68.2172 162.263 62.9813 164.479 58.3698C167.141 53.998 171.233 50.6816 176.061 48.9834C178.475 47.9988 180.988 47.2786 183.556 46.8353C184.079 46.7568 184.612 46.8506 185.077 47.1025C185.541 47.3545 185.91 47.7508 186.129 48.2315C187.158 50.6294 187.924 53.1317 188.415 55.6946C189.618 60.6667 189.065 65.9018 186.849 70.5125C184.189 74.8835 180.099 78.1999 175.272 79.8995C172.859 80.884 170.345 81.6043 167.777 82.0475C167.586 82.0758 167.394 82.0816 167.202 82.0648Z" fill="#6CDFB3"/>
<path d="M72.1191 110.806V110.82L72.1194 110.833C72.4058 129.051 90.0846 143.242 111.188 143.242C132.291 143.242 149.974 129.045 150.257 110.833L150.257 110.819V110.806V110.806V110.805V110.805V110.805V110.805V110.805V110.804V110.804V110.804V110.804V110.804V110.803V110.803V110.803V110.803V110.802V110.802V110.802V110.802V110.802V110.801V110.801V110.801V110.801V110.801V110.8V110.8V110.8V110.8V110.8V110.799V110.799V110.799V110.799V110.799V110.798V110.798V110.798V110.798V110.798V110.797V110.797V110.797V110.797V110.796V110.796V110.796V110.796V110.796V110.795V110.795V110.795V110.795V110.795V110.794V110.794V110.794V110.794V110.794V110.793V110.793V110.793V110.793V110.793V110.792V110.792V110.792V110.792V110.792V110.791V110.791V110.791V110.791V110.79V110.79V110.79V110.79V110.79V110.789V110.789V110.789V110.789V110.789V110.788V110.788V110.788V110.788V110.788V110.787V110.787V110.787V110.787V110.787V110.786V110.786V110.786V110.786V110.785V110.785V110.785V110.785V110.785V110.784V110.784V110.784V110.784V110.784V110.783V110.783V110.783V110.783V110.783V110.782V110.782V110.782V110.782V110.782V110.781V110.781V110.781V110.781V110.781V110.78V110.78V110.78V110.78V110.779V110.779V110.779V110.779V110.779V110.778V110.778V110.778V110.778V110.778V110.777V110.777V110.777V110.777V110.777V110.776V110.776V110.776V110.776V110.776V110.775V110.775V110.775V110.775V110.775V110.774V110.774V110.774V110.774V110.773V110.773V110.773V110.773V110.773V110.772V110.772V110.772V110.772V110.772V110.771V110.771V110.771V110.771V110.771V110.77V110.77V110.77V110.77V110.77V110.769V110.769V110.769V110.769V110.769V110.768V110.768V110.768V110.768V110.767V110.767V110.767V110.767V110.767V110.766V110.766V110.766V110.766V110.766V110.765V110.765V110.765V110.765V110.765V110.764V110.764V110.764V110.764V110.764V110.763V110.763V110.763V110.763V110.762V110.762V110.762V110.762V110.762V110.761V110.761V110.761V110.761V110.761V110.76V110.76V110.76V110.76V110.76V110.759V110.759V110.759V110.759V110.759V110.758V110.758V110.758V110.758V110.758V110.757V110.757V110.757V110.757V110.756V110.756V110.756V110.756V110.756V110.755V110.755V110.755V110.755V110.755V110.754V110.754V110.754V110.754V110.754V110.753V110.753V110.753V110.753V110.753V110.752V110.752V110.752V110.752V110.752V110.751V110.751V110.751V110.751V110.75V110.75V110.75V110.75V110.75V110.749V110.749V110.749V110.749V110.749V110.748V110.748V110.748V110.748V110.748V110.747V110.747V110.747V110.747V110.747V110.746V110.746V110.746V110.746V110.745V110.745V110.745V110.745V110.745V110.744V110.744V110.744V110.744V110.744V110.743V110.743V110.743V110.743V110.743V110.742V110.742V110.742V110.742V110.742V110.741V110.741V110.741V110.741V110.741V110.74V110.74V110.74V110.74V110.739V110.739V110.739V110.739V110.739V110.738V110.738V110.738V110.738V110.738V110.737V110.737V110.737V110.737V110.737V110.736V110.736V110.736V110.736V110.736V110.735V110.735V110.735V110.735V110.735V110.734V110.734V110.734V110.734V110.733V110.733V110.733V110.733V110.733V110.732V110.732V110.732V110.732V110.732V110.731V110.731V110.731V110.731V110.731V110.73V110.73V110.73V110.73V110.73V110.729V110.729V110.729V110.729V110.729V110.728V110.728V110.728V110.728V110.727V110.727V110.727V110.727V110.727V110.726V110.726V110.726V110.726V110.726V110.725V110.725V110.725V110.725V110.725V110.724V110.724V110.724V110.724V110.724V110.723V110.723V110.723V110.723V110.722V110.722V110.722V110.722V110.722V110.721V110.721V110.721V110.721V110.721V110.72V110.72V110.72V110.72V110.72V110.719V110.719V110.719V110.719V110.719V110.718V110.718V110.718V110.718V110.718V110.717V110.717V110.717V110.717V110.716V110.716V110.716V110.716V110.716V110.715V110.715V110.715V110.715V110.715V110.714V110.714V110.714V110.714V110.714V110.713V110.713V110.713V110.713V110.713V110.712V110.712V110.712V110.712V110.712V110.711V110.711V110.711V110.711V110.71V110.71V110.71V110.71V110.71V110.709V110.709V110.709V110.709V110.709V110.708V110.708V110.708V110.708V110.708V110.707V110.707V110.707V110.707V110.707V110.706V110.706V110.706V110.706V110.705V110.705V110.705V110.705V110.705V110.704V110.704V110.704V110.704V110.704V110.703V110.703V110.703V110.703V110.703V110.702V110.702V110.702V110.702V110.702V110.701V110.701V110.701V110.701V110.701V110.7V110.7V110.7V110.7V60.3351C150.257 59.4019 149.886 58.5069 149.226 57.847C148.566 57.1871 147.672 56.8164 146.738 56.8164H75.6378C74.7046 56.8164 73.8096 57.1871 73.1497 57.847C72.4899 58.5069 72.1191 59.4019 72.1191 60.3351V110.7V110.7V110.7V110.7V110.701V110.701V110.701V110.701V110.701V110.702V110.702V110.702V110.702V110.702V110.703V110.703V110.703V110.703V110.703V110.704V110.704V110.704V110.704V110.704V110.705V110.705V110.705V110.705V110.705V110.706V110.706V110.706V110.706V110.707V110.707V110.707V110.707V110.707V110.708V110.708V110.708V110.708V110.708V110.709V110.709V110.709V110.709V110.709V110.71V110.71V110.71V110.71V110.71V110.711V110.711V110.711V110.711V110.712V110.712V110.712V110.712V110.712V110.713V110.713V110.713V110.713V110.713V110.714V110.714V110.714V110.714V110.714V110.715V110.715V110.715V110.715V110.715V110.716V110.716V110.716V110.716V110.716V110.717V110.717V110.717V110.717V110.718V110.718V110.718V110.718V110.718V110.719V110.719V110.719V110.719V110.719V110.72V110.72V110.72V110.72V110.72V110.721V110.721V110.721V110.721V110.721V110.722V110.722V110.722V110.722V110.722V110.723V110.723V110.723V110.723V110.724V110.724V110.724V110.724V110.724V110.725V110.725V110.725V110.725V110.725V110.726V110.726V110.726V110.726V110.726V110.727V110.727V110.727V110.727V110.727V110.728V110.728V110.728V110.728V110.729V110.729V110.729V110.729V110.729V110.73V110.73V110.73V110.73V110.73V110.731V110.731V110.731V110.731V110.731V110.732V110.732V110.732V110.732V110.732V110.733V110.733V110.733V110.733V110.733V110.734V110.734V110.734V110.734V110.735V110.735V110.735V110.735V110.735V110.736V110.736V110.736V110.736V110.736V110.737V110.737V110.737V110.737V110.737V110.738V110.738V110.738V110.738V110.738V110.739V110.739V110.739V110.739V110.739V110.74V110.74V110.74V110.74V110.741V110.741V110.741V110.741V110.741V110.742V110.742V110.742V110.742V110.742V110.743V110.743V110.743V110.743V110.743V110.744V110.744V110.744V110.744V110.744V110.745V110.745V110.745V110.745V110.745V110.746V110.746V110.746V110.746V110.747V110.747V110.747V110.747V110.747V110.748V110.748V110.748V110.748V110.748V110.749V110.749V110.749V110.749V110.749V110.75V110.75V110.75V110.75V110.75V110.751V110.751V110.751V110.751V110.752V110.752V110.752V110.752V110.752V110.753V110.753V110.753V110.753V110.753V110.754V110.754V110.754V110.754V110.754V110.755V110.755V110.755V110.755V110.755V110.756V110.756V110.756V110.756V110.756V110.757V110.757V110.757V110.757V110.758V110.758V110.758V110.758V110.758V110.759V110.759V110.759V110.759V110.759V110.76V110.76V110.76V110.76V110.76V110.761V110.761V110.761V110.761V110.761V110.762V110.762V110.762V110.762V110.762V110.763V110.763V110.763V110.763V110.764V110.764V110.764V110.764V110.764V110.765V110.765V110.765V110.765V110.765V110.766V110.766V110.766V110.766V110.766V110.767V110.767V110.767V110.767V110.767V110.768V110.768V110.768V110.768V110.769V110.769V110.769V110.769V110.769V110.77V110.77V110.77V110.77V110.77V110.771V110.771V110.771V110.771V110.771V110.772V110.772V110.772V110.772V110.772V110.773V110.773V110.773V110.773V110.773V110.774V110.774V110.774V110.774V110.775V110.775V110.775V110.775V110.775V110.776V110.776V110.776V110.776V110.776V110.777V110.777V110.777V110.777V110.777V110.778V110.778V110.778V110.778V110.778V110.779V110.779V110.779V110.779V110.779V110.78V110.78V110.78V110.78V110.781V110.781V110.781V110.781V110.781V110.782V110.782V110.782V110.782V110.782V110.783V110.783V110.783V110.783V110.783V110.784V110.784V110.784V110.784V110.784V110.785V110.785V110.785V110.785V110.785V110.786V110.786V110.786V110.786V110.787V110.787V110.787V110.787V110.787V110.788V110.788V110.788V110.788V110.788V110.789V110.789V110.789V110.789V110.789V110.79V110.79V110.79V110.79V110.79V110.791V110.791V110.791V110.791V110.792V110.792V110.792V110.792V110.792V110.793V110.793V110.793V110.793V110.793V110.794V110.794V110.794V110.794V110.794V110.795V110.795V110.795V110.795V110.795V110.796V110.796V110.796V110.796V110.796V110.797V110.797V110.797V110.797V110.798V110.798V110.798V110.798V110.798V110.799V110.799V110.799V110.799V110.799V110.8V110.8V110.8V110.8V110.8V110.801V110.801V110.801V110.801V110.801V110.802V110.802V110.802V110.802V110.802V110.803V110.803V110.803V110.803V110.804V110.804V110.804V110.804V110.804V110.805V110.805V110.805V110.805V110.805V110.806V110.806Z" fill="#00CB7E" stroke="#00CB7E" stroke-width="3.5"/>
<path opacity="0.2" d="M74.8203 117.385L133.646 58.5586H146.734C147.203 58.5586 147.653 58.7449 147.985 59.0766C148.317 59.4083 148.503 59.8582 148.503 60.3273V68.5993L84.762 132.342C80.0021 128.485 76.5335 123.267 74.8203 117.385H74.8203Z" fill="white"/>
<path d="M98.6984 88.5148H98.3907C98.0147 89.672 97.5874 90.9871 97.1089 92.4599C96.6303 93.8977 96.1176 95.4057 95.5707 96.9837C95.058 98.5618 94.5794 100.105 94.135 101.613L93.2634 105.821C93.0583 106.487 92.8532 107.206 92.6481 107.978C92.443 108.749 92.2208 109.503 91.9816 110.239C91.7765 110.976 91.5714 111.695 91.3663 112.396C91.1954 113.062 91.0415 113.659 90.9048 114.185C90.5288 114.325 90.1186 114.448 89.6743 114.553C89.2299 114.658 88.683 114.711 88.0335 114.711C86.7346 114.711 85.7262 114.465 85.0084 113.974C84.2906 113.448 83.9316 112.712 83.9316 111.765C83.9316 111.344 84 110.923 84.1367 110.502C84.2735 110.047 84.4102 109.538 84.5469 108.977C84.8887 107.82 85.3331 106.364 85.88 104.611C86.4611 102.858 87.0935 100.964 87.7771 98.93C88.4608 96.861 89.1444 94.827 89.8281 92.8282C90.5459 90.7942 91.2125 88.9181 91.8277 87.1997C92.443 85.4814 92.9558 84.0962 93.3659 83.0442C93.8445 82.7636 94.5623 82.5006 95.5194 82.2551C96.5107 81.9746 97.4849 81.8343 98.442 81.8343C99.8093 81.8343 101.04 82.0447 102.134 82.4655C103.228 82.8513 103.911 83.5001 104.185 84.4118C104.868 86.2704 105.603 88.4446 106.389 90.9345C107.176 93.3892 107.979 95.9492 108.799 98.6144C109.62 101.28 110.389 103.875 111.107 106.4C111.859 108.924 112.525 111.204 113.106 113.238C112.764 113.659 112.252 113.992 111.568 114.237C110.884 114.518 110.098 114.658 109.209 114.658C107.876 114.658 106.936 114.43 106.389 113.974C105.842 113.483 105.432 112.729 105.159 111.712L103.313 105.453L102.544 101.35C102.065 99.7366 101.587 98.141 101.108 96.5629C100.63 94.9848 100.185 93.512 99.7751 92.1443C99.3649 90.7416 99.006 89.5318 98.6984 88.5148ZM90.0844 106.926L92.8532 101.034H105.159L106.133 106.926H90.0844Z" fill="white"/>
<path d="M117.22 85.3061C117.22 84.3242 117.613 83.465 118.399 82.7286C119.22 81.9921 120.331 81.431 121.732 81.0453C123.134 80.6245 124.723 80.4141 126.501 80.4141C129.064 80.4141 131.235 80.8349 133.012 81.6765C134.79 82.5181 136.123 83.6754 137.012 85.1483C137.935 86.6211 138.396 88.3219 138.396 90.2507C138.396 92.1794 137.866 94.0731 136.806 95.9317C135.747 97.7552 134.055 99.719 131.73 101.823L123.988 108.661H138.088C138.259 108.942 138.413 109.328 138.55 109.819C138.721 110.31 138.806 110.836 138.806 111.397C138.806 112.308 138.584 113.01 138.14 113.501C137.729 113.957 137.148 114.185 136.396 114.185H117.887C117.306 113.764 116.844 113.238 116.502 112.607C116.195 111.975 116.041 111.256 116.041 110.45C116.041 109.538 116.229 108.749 116.605 108.083C116.981 107.381 117.408 106.803 117.887 106.347L126.244 98.5618C128.227 96.7382 129.594 95.2303 130.346 94.038C131.098 92.8457 131.474 91.6709 131.474 90.5137C131.474 89.2161 130.996 88.1641 130.038 87.3575C129.081 86.5159 127.697 86.0951 125.885 86.0951C124.415 86.0951 123.099 86.3406 121.937 86.8315C120.775 87.3225 119.818 87.8485 119.066 88.4096C118.587 88.094 118.16 87.6907 117.784 87.1997C117.408 86.6737 117.22 86.0425 117.22 85.3061Z" fill="white"/>
</svg>
