<svg width="39" height="36" viewBox="0 0 39 36" fill="none" xmlns="http://www.w3.org/2000/svg">
<path fill-rule="evenodd" clip-rule="evenodd" d="M8.38556 2H29.749C30.0953 2 30.4273 2.13754 30.6721 2.38237C30.917 2.62719 31.0545 2.95925 31.0545 3.30548V5.26172C31.0545 5.60796 30.917 5.94001 30.6721 6.18484C30.4273 6.42966 30.0953 6.5672 29.749 6.5672H28.5788V8.52582V8.54333H33.8543C34.1538 8.54333 34.4504 8.60233 34.7271 8.71695C35.0038 8.83157 35.2553 8.99958 35.4671 9.21137C35.6789 9.42316 35.8469 9.6746 35.9615 9.95132C36.0761 10.228 36.1351 10.5246 36.1351 10.8242V14.6889C36.1349 16.3183 35.4875 17.8809 34.3353 19.0331C33.1832 20.1853 31.6205 20.8326 29.9911 20.8329H26.688C26.4293 21.1791 26.1465 21.5084 25.8413 21.8182C24.7234 22.9526 23.3392 23.7889 21.815 24.2507L21.748 24.1822C21.454 24.2686 21.1554 24.3409 20.8532 24.3986V27.9887H24.1257C24.2972 27.9886 24.467 28.0223 24.6254 28.0879C24.7838 28.1534 24.9278 28.2496 25.049 28.3708C25.1703 28.4921 25.2664 28.636 25.332 28.7945C25.3976 28.9529 25.4313 29.1227 25.4312 29.2942V29.9492H28.0128C28.3584 29.9501 28.6896 30.088 28.9336 30.3328C29.1776 30.5775 29.3145 30.9091 29.3143 31.2547V32.2698C29.3143 32.616 29.1768 32.9481 28.932 33.1929C28.6871 33.4378 28.3551 33.5753 28.0089 33.5753H10.1219C9.95019 33.5753 9.78017 33.5414 9.62157 33.4756C9.46298 33.4098 9.31892 33.3134 9.19765 33.1918C9.07638 33.0702 8.98029 32.926 8.91487 32.7672C8.84945 32.6084 8.81599 32.4383 8.81641 32.2666V31.2547C8.81631 31.0832 8.85 30.9134 8.91557 30.755C8.98114 30.5966 9.0773 30.4526 9.19854 30.3314C9.31979 30.2101 9.46375 30.1139 9.62218 30.0484C9.78062 29.9828 9.95043 29.9491 10.1219 29.9492H12.7041V29.2942C12.704 29.1227 12.7377 28.9529 12.8033 28.7945C12.8688 28.636 12.965 28.4921 13.0862 28.3708C13.2075 28.2496 13.3514 28.1534 13.5099 28.0879C13.6683 28.0223 13.8381 27.9886 14.0096 27.9887H17.2812V24.3984C15.4377 24.0458 13.7252 23.1524 12.3729 21.8125C12.0619 21.5043 11.7743 21.1768 11.5114 20.8329H8.14556C7.33855 20.833 6.53942 20.6741 5.79381 20.3653C5.04821 20.0566 4.37072 19.604 3.80004 19.0334C3.22936 18.4628 2.77667 17.7853 2.46782 17.0398C2.15897 16.2942 2 15.4951 2 14.6881V10.6849C2 10.1169 2.22563 9.57222 2.62726 9.17059C3.02889 8.76897 3.57361 8.54333 4.1416 8.54333H9.55664V8.52582V6.5672H8.38556C8.03933 6.5672 7.70727 6.42966 7.46245 6.18484C7.21762 5.94001 7.08008 5.60796 7.08008 5.26172V3.30548C7.08008 2.95925 7.21762 2.62719 7.46245 2.38237C7.70727 2.13754 8.03933 2 8.38556 2ZM5.58948 12.1328H9.55664V15.1431C9.56316 15.8564 9.64974 16.5608 9.8113 17.2442H8.14476C7.80913 17.2443 7.47677 17.1783 7.16665 17.0499C6.85654 16.9215 6.57476 16.7333 6.33739 16.496C6.10003 16.2587 5.91174 15.977 5.78327 15.6669C5.65481 15.3569 5.58869 15.0245 5.58869 14.6889L5.58948 12.1328ZM28.5788 15.1431C28.5723 15.8564 28.4857 16.5608 28.3242 17.2442H29.9911C30.3268 17.2443 30.6591 17.1783 30.9692 17.0499C31.2793 16.9215 31.5611 16.7333 31.7985 16.496C32.0359 16.2587 32.2241 15.977 32.3526 15.6669C32.4811 15.3569 32.5472 15.0245 32.5472 14.6889V12.1328H28.5788V15.1431Z" fill="#FFF5C0"/>
<path d="M30.6721 2.38237L29.2579 3.79658L30.6721 2.38237ZM30.6721 6.18484L29.2579 4.77062V4.77062L30.6721 6.18484ZM28.5788 6.5672V4.5672H26.5788V6.5672H28.5788ZM28.5788 8.54333H26.5788V10.5433H28.5788V8.54333ZM34.7271 8.71695L35.4925 6.86919L35.4925 6.86919L34.7271 8.71695ZM35.4671 9.21137L34.0528 10.6256L34.0528 10.6256L35.4671 9.21137ZM35.9615 9.95132L34.1137 10.7167L34.1137 10.7167L35.9615 9.95132ZM36.1351 14.6889L38.1351 14.6891V14.6889H36.1351ZM34.3353 19.0331L32.9211 17.6189L32.9211 17.6189L34.3353 19.0331ZM29.9911 20.8329V22.8329H29.9914L29.9911 20.8329ZM26.688 20.8329V18.8329H25.6857L25.0858 19.6358L26.688 20.8329ZM25.8413 21.8182L27.2658 23.222V23.222L25.8413 21.8182ZM21.815 24.2507L20.3855 25.6494L21.2339 26.5165L22.395 26.1648L21.815 24.2507ZM21.748 24.1822L23.1775 22.7835L22.3372 21.9247L21.1844 22.2633L21.748 24.1822ZM20.8532 24.3986L20.4778 22.4342L18.8532 22.7446V24.3986H20.8532ZM20.8532 27.9887H18.8532V29.9887H20.8532V27.9887ZM24.1257 27.9887V29.9887H24.1269L24.1257 27.9887ZM24.6254 28.0879L23.8606 29.9359L23.8606 29.9359L24.6254 28.0879ZM25.332 28.7945L27.18 28.0297L27.18 28.0297L25.332 28.7945ZM25.4312 29.2942L23.4312 29.293V29.2942H25.4312ZM25.4312 29.9492H23.4312V31.9492H25.4312V29.9492ZM28.0128 29.9492L28.0177 27.9492H28.0128V29.9492ZM29.3143 31.2547L27.3143 31.2535V31.2547H29.3143ZM28.932 33.1929L30.3462 34.6072L30.3462 34.6071L28.932 33.1929ZM9.62157 33.4756L10.3881 31.6283L10.3881 31.6283L9.62157 33.4756ZM9.19765 33.1918L7.78171 34.6043L7.78172 34.6043L9.19765 33.1918ZM8.91487 32.7672L10.764 32.0052L10.764 32.0052L8.91487 32.7672ZM8.81641 32.2666L10.8164 32.2715V32.2666H8.81641ZM8.81641 31.2547H10.8164V31.2535L8.81641 31.2547ZM8.91557 30.755L10.7636 31.5198L10.7636 31.5198L8.91557 30.755ZM9.19854 30.3314L10.6128 31.7456L10.6128 31.7456L9.19854 30.3314ZM9.62218 30.0484L10.387 31.8964L10.387 31.8964L9.62218 30.0484ZM10.1219 29.9492L10.1207 31.9492H10.1219V29.9492ZM12.7041 29.9492V31.9492H14.7041V29.9492H12.7041ZM12.7041 29.2942H14.7041V29.293L12.7041 29.2942ZM13.5099 28.0879L14.2747 29.9359L14.2747 29.9359L13.5099 28.0879ZM14.0096 27.9887L14.0084 29.9887H14.0096V27.9887ZM17.2812 27.9887V29.9887H19.2812V27.9887H17.2812ZM17.2812 24.3984H19.2812V22.7446L17.6569 22.434L17.2812 24.3984ZM12.3729 21.8125L10.9652 23.2331L10.9652 23.2331L12.3729 21.8125ZM11.5114 20.8329L13.1002 19.6182L12.4999 18.8329H11.5114V20.8329ZM8.14556 20.8329V18.8329H8.1453L8.14556 20.8329ZM5.79381 20.3653L6.559 18.5175H6.559L5.79381 20.3653ZM3.80004 19.0334L2.38592 20.4477H2.38592L3.80004 19.0334ZM2.46782 17.0398L0.620084 17.8052H0.620084L2.46782 17.0398ZM2.62726 9.17059L4.04147 10.5848L4.04147 10.5848L2.62726 9.17059ZM9.55664 8.54333V10.5433H11.5566V8.54333H9.55664ZM9.55664 6.5672H11.5566V4.5672H9.55664V6.5672ZM7.46245 6.18484L8.87666 4.77062L8.87666 4.77062L7.46245 6.18484ZM7.46245 2.38237L8.87666 3.79658L8.87666 3.79658L7.46245 2.38237ZM9.55664 12.1328H11.5566V10.1328H9.55664V12.1328ZM5.58948 12.1328V10.1328H3.59011L3.58948 12.1322L5.58948 12.1328ZM9.55664 15.1431H7.55664V15.1523L7.55672 15.1614L9.55664 15.1431ZM9.8113 17.2442V19.2442H12.3392L11.7576 16.7841L9.8113 17.2442ZM8.14476 17.2442V15.2442H8.14414L8.14476 17.2442ZM7.16665 17.0499L6.40172 18.8978L6.40172 18.8978L7.16665 17.0499ZM6.33739 16.496L4.9234 17.9105L4.9234 17.9105L6.33739 16.496ZM5.78327 15.6669L3.93557 16.4325L3.93557 16.4325L5.78327 15.6669ZM5.58869 14.6889L3.58869 14.6883V14.6889H5.58869ZM28.3242 17.2442L26.3778 16.7841L25.7963 19.2442H28.3242V17.2442ZM28.5788 15.1431L30.5787 15.1614L30.5788 15.1523V15.1431H28.5788ZM29.9911 17.2442L29.9917 15.2442H29.9911V17.2442ZM30.9692 17.0499L31.7342 18.8978L30.9692 17.0499ZM31.7985 16.496L33.2125 17.9105L33.2125 17.9105L31.7985 16.496ZM32.3526 15.6669L34.2003 16.4325L34.2003 16.4324L32.3526 15.6669ZM32.5472 12.1328H34.5472V10.1328H32.5472V12.1328ZM28.5788 12.1328V10.1328H26.5788V12.1328H28.5788ZM29.749 0H8.38556V4H29.749V0ZM32.0864 0.968154C31.4665 0.348253 30.6257 0 29.749 0V4C29.5648 4 29.3882 3.92683 29.2579 3.79658L32.0864 0.968154ZM33.0545 3.30548C33.0545 2.42882 32.7063 1.58805 32.0864 0.968154L29.2579 3.79658C29.1277 3.66633 29.0545 3.48968 29.0545 3.30548H33.0545ZM33.0545 5.26172V3.30548H29.0545V5.26172H33.0545ZM32.0864 7.59905C32.7063 6.97915 33.0545 6.13839 33.0545 5.26172H29.0545C29.0545 5.07753 29.1277 4.90087 29.2579 4.77062L32.0864 7.59905ZM29.749 8.5672C30.6257 8.5672 31.4665 8.21895 32.0864 7.59905L29.2579 4.77062C29.3882 4.64037 29.5648 4.5672 29.749 4.5672V8.5672ZM28.5788 8.5672H29.749V4.5672H28.5788V8.5672ZM30.5788 8.52582V6.5672H26.5788V8.52582H30.5788ZM30.5788 8.54333V8.52582H26.5788V8.54333H30.5788ZM33.8543 6.54333H28.5788V10.5433H33.8543V6.54333ZM35.4925 6.86919C34.9731 6.65406 34.4164 6.54333 33.8543 6.54333V10.5433C33.8912 10.5433 33.9277 10.5506 33.9617 10.5647L35.4925 6.86919ZM36.8813 7.79716C36.4838 7.39965 36.0118 7.08432 35.4925 6.86919L33.9617 10.5647C33.9958 10.5788 34.0268 10.5995 34.0528 10.6256L36.8813 7.79716ZM37.8092 9.18596C37.5941 8.66659 37.2788 8.19467 36.8813 7.79715L34.0528 10.6256C34.0789 10.6517 34.0996 10.6826 34.1137 10.7167L37.8092 9.18596ZM38.1351 10.8242C38.1351 10.262 38.0244 9.70532 37.8092 9.18594L34.1137 10.7167C34.1278 10.7508 34.1351 10.7873 34.1351 10.8242H38.1351ZM38.1351 14.6889V10.8242H34.1351V14.6889H38.1351ZM35.7495 20.4473C37.2767 18.9201 38.1348 16.8489 38.1351 14.6891L34.1351 14.6886C34.135 15.7877 33.6983 16.8417 32.9211 17.6189L35.7495 20.4473ZM29.9914 22.8329C32.1511 22.8326 34.2224 21.9745 35.7495 20.4473L32.9211 17.6189C32.144 18.396 31.0899 18.8327 29.9909 18.8329L29.9914 22.8329ZM26.688 22.8329H29.9911V18.8329H26.688V22.8329ZM27.2658 23.222C27.6351 22.8472 27.9772 22.4488 28.2902 22.0299L25.0858 19.6358C24.8814 19.9094 24.658 20.1696 24.4167 20.4144L27.2658 23.222ZM22.395 26.1648C24.2389 25.6061 25.9135 24.5944 27.2658 23.222L24.4167 20.4144C23.5334 21.3108 22.4395 21.9717 21.2351 22.3366L22.395 26.1648ZM20.3185 25.5809L20.3855 25.6494L23.2445 22.8519L23.1775 22.7835L20.3185 25.5809ZM21.2287 26.363C21.5944 26.2931 21.9558 26.2057 22.3117 26.1011L21.1844 22.2633C20.9521 22.3315 20.7163 22.3886 20.4778 22.4342L21.2287 26.363ZM22.8532 27.9887V24.3986H18.8532V27.9887H22.8532ZM24.1257 25.9887H20.8532V29.9887H24.1257V25.9887ZM25.3902 26.2399C24.9889 26.0738 24.5588 25.9884 24.1245 25.9887L24.1269 29.9887C24.0355 29.9888 23.945 29.9708 23.8606 29.9359L25.3902 26.2399ZM26.4633 26.9566C26.1561 26.6495 25.7915 26.406 25.3902 26.2399L23.8606 29.9359C23.7762 29.9009 23.6994 29.8497 23.6348 29.7851L26.4633 26.9566ZM27.18 28.0297C27.0139 27.6284 26.7704 27.2637 26.4633 26.9566L23.6348 29.7851C23.5702 29.7204 23.519 29.6437 23.484 29.5593L27.18 28.0297ZM27.4312 29.2954C27.4314 28.8611 27.3461 28.431 27.18 28.0297L23.484 29.5593C23.4491 29.4748 23.4311 29.3843 23.4312 29.293L27.4312 29.2954ZM27.4312 29.9492V29.2942H23.4312V29.9492H27.4312ZM28.0128 27.9492H25.4312V31.9492H28.0128V27.9492ZM30.35 28.9207C29.7319 28.3008 28.8931 27.9514 28.0177 27.9492L28.0079 31.9492C27.8238 31.9488 27.6473 31.8752 27.5172 31.7448L30.35 28.9207ZM31.3143 31.2559C31.3149 30.3805 30.968 29.5407 30.35 28.9207L27.5172 31.7448C27.3872 31.6144 27.3142 31.4377 27.3143 31.2535L31.3143 31.2559ZM31.3143 32.2698V31.2547H27.3143V32.2698H31.3143ZM30.3462 34.6071C30.9661 33.9872 31.3143 33.1465 31.3143 32.2698H27.3143C27.3143 32.0856 27.3875 31.909 27.5178 31.7787L30.3462 34.6071ZM28.0089 35.5753C28.8855 35.5753 29.7263 35.227 30.3462 34.6072L27.5178 31.7787C27.648 31.6485 27.8246 31.5753 28.0089 31.5753V35.5753ZM10.1219 35.5753H28.0089V31.5753H10.1219V35.5753ZM8.85508 35.3229C9.25663 35.4895 9.68712 35.5753 10.1219 35.5753V31.5753C10.2133 31.5753 10.3037 31.5933 10.3881 31.6283L8.85508 35.3229ZM7.78172 34.6043C8.08877 34.9121 8.45353 35.1563 8.85509 35.3229L10.3881 31.6283C10.4724 31.6633 10.5491 31.7146 10.6136 31.7793L7.78172 34.6043ZM7.06571 33.5292C7.23136 33.9312 7.47467 34.2965 7.78171 34.6043L10.6136 31.7793C10.6781 31.844 10.7292 31.9208 10.764 32.0052L7.06571 33.5292ZM6.81642 32.2618C6.81536 32.6965 6.90007 33.1272 7.06572 33.5292L10.764 32.0052C10.7988 32.0897 10.8166 32.1802 10.8164 32.2715L6.81642 32.2618ZM6.81641 31.2547V32.2666H10.8164V31.2547H6.81641ZM7.06758 29.9902C6.9015 30.3915 6.81615 30.8216 6.81641 31.2559L10.8164 31.2535C10.8165 31.3449 10.7985 31.4354 10.7636 31.5198L7.06758 29.9902ZM7.78433 28.9171C7.47722 29.2243 7.23366 29.5889 7.06758 29.9902L10.7636 31.5198C10.7286 31.6042 10.6774 31.6809 10.6128 31.7456L7.78433 28.9171ZM8.85739 28.2004C8.45606 28.3665 8.09143 28.61 7.78433 28.9171L10.6128 31.7456C10.5482 31.8102 10.4714 31.8614 10.387 31.8964L8.85739 28.2004ZM10.1231 27.9492C9.68881 27.949 9.25869 28.0343 8.85737 28.2004L10.387 31.8964C10.3025 31.9313 10.212 31.9493 10.1207 31.9492L10.1231 27.9492ZM12.7041 27.9492H10.1219V31.9492H12.7041V27.9492ZM10.7041 29.2942V29.9492H14.7041V29.2942H10.7041ZM10.9553 28.0297C10.7892 28.431 10.7038 28.8611 10.7041 29.2954L14.7041 29.293C14.7042 29.3844 14.6862 29.4749 14.6513 29.5593L10.9553 28.0297ZM11.672 26.9566C11.3649 27.2637 11.1214 27.6284 10.9553 28.0297L14.6513 29.5593C14.6163 29.6437 14.5651 29.7204 14.5004 29.7851L11.672 26.9566ZM12.7451 26.2399C12.3438 26.406 11.9791 26.6495 11.672 26.9566L14.5004 29.7851C14.4358 29.8497 14.3591 29.9009 14.2747 29.9359L12.7451 26.2399ZM14.0108 25.9887C13.5765 25.9884 13.1464 26.0738 12.7451 26.2399L14.2747 29.9359C14.1902 29.9708 14.0997 29.9888 14.0084 29.9887L14.0108 25.9887ZM17.2812 25.9887H14.0096V29.9887H17.2812V25.9887ZM15.2812 24.3984V27.9887H19.2812V24.3984H15.2812ZM10.9652 23.2331C12.6019 24.8549 14.6744 25.9361 16.9056 26.3628L17.6569 22.434C16.2009 22.1556 14.8485 21.45 13.7807 20.3918L10.9652 23.2331ZM9.92249 22.0476C10.2408 22.4639 10.5888 22.8602 10.9652 23.2331L13.7807 20.3918C13.535 20.1483 13.3079 19.8897 13.1002 19.6182L9.92249 22.0476ZM8.14556 22.8329H11.5114V18.8329H8.14556V22.8329ZM5.02863 22.2132C6.01692 22.6224 7.07614 22.833 8.14581 22.8329L8.1453 18.8329C7.60096 18.8329 7.06193 18.7258 6.559 18.5175L5.02863 22.2132ZM2.38592 20.4477C3.14234 21.204 4.04034 21.8039 5.02863 22.2132L6.559 18.5175C6.05608 18.3092 5.5991 18.004 5.21416 17.6191L2.38592 20.4477ZM0.620084 17.8052C1.02946 18.7934 1.6295 19.6914 2.38592 20.4477L5.21416 17.6191C4.82923 17.2342 4.52388 16.7773 4.31555 16.2744L0.620084 17.8052ZM0 14.6881C0 15.7578 0.210705 16.817 0.620084 17.8052L4.31555 16.2744C4.10723 15.7715 4 15.2324 4 14.6881H0ZM0 10.6849V14.6881H4V10.6849H0ZM1.21305 7.75638C0.436345 8.53308 0 9.58651 0 10.6849H4C4 10.6474 4.01492 10.6114 4.04147 10.5848L1.21305 7.75638ZM4.1416 6.54333C3.04318 6.54333 1.98975 6.97968 1.21305 7.75638L4.04147 10.5848C4.06803 10.5583 4.10404 10.5433 4.1416 10.5433V6.54333ZM9.55664 6.54333H4.1416V10.5433H9.55664V6.54333ZM7.55664 8.52582V8.54333H11.5566V8.52582H7.55664ZM7.55664 6.5672V8.52582H11.5566V6.5672H7.55664ZM8.38556 8.5672H9.55664V4.5672H8.38556V8.5672ZM6.04823 7.59905C6.66813 8.21895 7.5089 8.5672 8.38556 8.5672V4.5672C8.56976 4.5672 8.74641 4.64038 8.87666 4.77062L6.04823 7.59905ZM5.08008 5.26172C5.08008 6.13839 5.42834 6.97915 6.04823 7.59905L8.87666 4.77062C9.00691 4.90087 9.08008 5.07752 9.08008 5.26172H5.08008ZM5.08008 3.30548V5.26172H9.08008V3.30548H5.08008ZM6.04823 0.968153C5.42834 1.58805 5.08008 2.42881 5.08008 3.30548H9.08008C9.08008 3.48968 9.00691 3.66634 8.87666 3.79658L6.04823 0.968153ZM8.38556 0C7.50889 0 6.66813 0.348254 6.04823 0.968154L8.87666 3.79658C8.74641 3.92683 8.56976 4 8.38556 4V0ZM9.55664 10.1328H5.58948V14.1328H9.55664V10.1328ZM11.5566 15.1431V12.1328H7.55664V15.1431H11.5566ZM11.7576 16.7841C11.6301 16.2444 11.5617 15.6883 11.5566 15.1248L7.55672 15.1614C7.56462 16.0246 7.6694 16.8771 7.86494 17.7043L11.7576 16.7841ZM8.14476 19.2442H9.8113V15.2442H8.14476V19.2442ZM6.40172 18.8978C6.95455 19.1267 7.54705 19.2444 8.14538 19.2442L8.14414 15.2442C8.07121 15.2442 7.99898 15.2298 7.93159 15.202L6.40172 18.8978ZM4.9234 17.9105C5.34655 18.3335 5.84888 18.669 6.40172 18.8978L7.93159 15.202C7.8642 15.1741 7.80297 15.1332 7.75138 15.0816L4.9234 17.9105ZM3.93557 16.4325C4.16459 16.9852 4.50025 17.4874 4.9234 17.9105L7.75139 15.0816C7.69981 15.03 7.65889 14.9688 7.63097 14.9014L3.93557 16.4325ZM3.58869 14.6889C3.58869 15.2872 3.70656 15.8797 3.93557 16.4325L7.63097 14.9014C7.60306 14.8341 7.58869 14.7618 7.58869 14.6889H3.58869ZM3.58948 12.1322L3.58869 14.6883L7.58869 14.6895L7.58948 12.1334L3.58948 12.1322ZM30.2705 17.7043C30.4661 16.8771 30.5709 16.0246 30.5787 15.1614L26.5789 15.1248C26.5738 15.6883 26.5054 16.2444 26.3778 16.7841L30.2705 17.7043ZM29.9911 15.2442H28.3242V19.2442H29.9911V15.2442ZM30.2043 15.202C30.1369 15.2298 30.0647 15.2442 29.9917 15.2442L29.9905 19.2442C30.5888 19.2444 31.1813 19.1267 31.7342 18.8978L30.2043 15.202ZM30.3845 15.0816C30.3329 15.1332 30.2717 15.1741 30.2043 15.202L31.7342 18.8978C32.287 18.669 32.7893 18.3335 33.2125 17.9105L30.3845 15.0816ZM30.5049 14.9014C30.477 14.9688 30.4361 15.03 30.3845 15.0816L33.2125 17.9105C33.6356 17.4874 33.9713 16.9852 34.2003 16.4325L30.5049 14.9014ZM30.5472 14.6889C30.5472 14.7618 30.5328 14.834 30.5049 14.9014L34.2003 16.4324C34.4293 15.8797 34.5472 15.2872 34.5472 14.6889H30.5472ZM30.5472 12.1328V14.6889H34.5472V12.1328H30.5472ZM28.5788 14.1328H32.5472V10.1328H28.5788V14.1328ZM30.5788 15.1431V12.1328H26.5788V15.1431H30.5788Z" fill="white"/>
<path d="M4.1416 8.54297H33.8543C34.1538 8.54297 34.4504 8.60196 34.7271 8.71659C35.0038 8.83121 35.2553 8.99921 35.4671 9.211C35.6789 9.4228 35.8469 9.67423 35.9615 9.95095C36.0761 10.2277 36.1351 10.5243 36.1351 10.8238V14.6885C36.1349 16.3179 35.4875 17.8806 34.3353 19.0327C33.1832 20.1849 31.6205 20.8323 29.9911 20.8325H8.14556C7.33855 20.8326 6.53942 20.6737 5.79381 20.365C5.04821 20.0562 4.37072 19.6036 3.80004 19.033C3.22936 18.4624 2.77667 17.785 2.46782 17.0394C2.15897 16.2938 2 15.4947 2 14.6877V10.6846C2 10.1166 2.22563 9.57185 2.62726 9.17023C3.02889 8.7686 3.57361 8.54297 4.1416 8.54297ZM5.58869 14.6885C5.58869 15.0242 5.65481 15.3565 5.78327 15.6666C5.91174 15.9766 6.10003 16.2584 6.33739 16.4957C6.57476 16.733 6.85654 16.9212 7.16665 17.0495C7.47677 17.1779 7.80913 17.2439 8.14476 17.2438H29.9911C30.3268 17.2439 30.6591 17.1779 30.9692 17.0495C31.2793 16.9212 31.5611 16.733 31.7985 16.4957C32.0359 16.2584 32.2241 15.9766 32.3526 15.6666C32.4811 15.3565 32.5472 15.0242 32.5472 14.6885V12.1325H5.58948L5.58869 14.6885Z" fill="#FFBF00"/>
<path fill-rule="evenodd" clip-rule="evenodd" d="M17.2803 19.6504H20.8523V31.2518H17.2803V19.6504Z" fill="#FFBF00"/>
<path fill-rule="evenodd" clip-rule="evenodd" d="M12.7041 30.3081V29.2938C12.704 29.1223 12.7377 28.9525 12.8033 28.7941C12.8688 28.6356 12.965 28.4917 13.0862 28.3704C13.2075 28.2492 13.3514 28.153 13.5099 28.0874C13.6683 28.0219 13.8381 27.9882 14.0096 27.9883H24.1257C24.2972 27.9882 24.467 28.0219 24.6254 28.0874C24.7838 28.153 24.9278 28.2492 25.049 28.3704C25.1703 28.4917 25.2664 28.6356 25.332 28.7941C25.3976 28.9525 25.4313 29.1223 25.4312 29.2938V30.3089C25.4312 30.6551 25.2936 30.9872 25.0488 31.232C24.804 31.4768 24.4719 31.6144 24.1257 31.6144H14.0096C13.8381 31.6144 13.6683 31.5806 13.5098 31.5149C13.3514 31.4493 13.2074 31.353 13.0862 31.2317C12.965 31.1104 12.8688 30.9664 12.8032 30.8079C12.7377 30.6494 12.704 30.4796 12.7041 30.3081Z" fill="#FFBF00"/>
<path fill-rule="evenodd" clip-rule="evenodd" d="M8.81641 32.2666V31.2547C8.81631 31.0832 8.85 30.9134 8.91557 30.755C8.98114 30.5966 9.0773 30.4526 9.19854 30.3314C9.31979 30.2101 9.46375 30.1139 9.62218 30.0484C9.78062 29.9828 9.95043 29.9491 10.1219 29.9492H28.0128C28.3584 29.9501 28.6896 30.088 28.9336 30.3328C29.1776 30.5775 29.3145 30.9091 29.3143 31.2547V32.2698C29.3143 32.616 29.1768 32.9481 28.932 33.1929C28.6871 33.4378 28.3551 33.5753 28.0089 33.5753H10.1219C9.95019 33.5753 9.78017 33.5414 9.62157 33.4756C9.46298 33.4098 9.31892 33.3134 9.19765 33.1918C9.07638 33.0702 8.98029 32.926 8.91487 32.7672C8.84945 32.6084 8.81599 32.4383 8.81641 32.2666Z" fill="#FFBF00"/>
<path fill-rule="evenodd" clip-rule="evenodd" d="M9.55664 4.61035H28.5788V15.1433C28.5559 17.6508 27.5437 20.0477 25.7626 21.8127C23.9814 23.5776 21.5753 24.5678 19.0677 24.5678C16.5602 24.5678 14.1541 23.5776 12.3729 21.8127C10.5917 20.0477 9.57957 17.6508 9.55664 15.1433V4.61035Z" fill="#FFD900"/>
<path fill-rule="evenodd" clip-rule="evenodd" d="M10.2065 4.61035H15.3465L28.2144 17.7567C27.775 19.2875 26.9591 20.6838 25.8413 21.8182C24.7234 22.9526 23.3392 23.7889 21.815 24.2507L9.67188 11.8402V5.98107C9.67103 5.47313 9.86196 4.98359 10.2065 4.61035Z" fill="#FFE659"/>
<path fill-rule="evenodd" clip-rule="evenodd" d="M9.55664 5.91602H28.5788V8.52619H9.55664V5.91602Z" fill="#FFBF00"/>
<path fill-rule="evenodd" clip-rule="evenodd" d="M16.6265 5.91583L19.181 8.52601H9.67188V5.98027C9.67188 5.95879 9.67188 5.93652 9.67188 5.91504L16.6265 5.91583Z" fill="#FFC320"/>
<path fill-rule="evenodd" clip-rule="evenodd" d="M8.38556 2H29.749C30.0953 2 30.4273 2.13754 30.6721 2.38237C30.917 2.62719 31.0545 2.95925 31.0545 3.30548V5.26172C31.0545 5.60796 30.917 5.94001 30.6721 6.18484C30.4273 6.42966 30.0953 6.5672 29.749 6.5672H8.38556C8.03933 6.5672 7.70727 6.42966 7.46245 6.18484C7.21762 5.94001 7.08008 5.60796 7.08008 5.26172V3.30548C7.08008 2.95925 7.21762 2.62719 7.46245 2.38237C7.70727 2.13754 8.03933 2 8.38556 2Z" fill="#FFD900"/>
<path d="M13.8781 2.65234H9.35547C8.81505 2.65234 8.37695 3.09044 8.37695 3.63086V3.63166C8.37695 4.17207 8.81505 4.61017 9.35547 4.61017H13.8781C14.4185 4.61017 14.8566 4.17207 14.8566 3.63166V3.63086C14.8566 3.09044 14.4185 2.65234 13.8781 2.65234Z" fill="#FFF5C0"/>
</svg>
