<svg width="115" height="148" viewBox="0 0 115 148" fill="none" xmlns="http://www.w3.org/2000/svg">
<mask id="path-1-outside-1_3462_465" maskUnits="userSpaceOnUse" x="2.5" y="0" width="109" height="148" fill="black">
<rect fill="white" x="2.5" width="109" height="148"/>
<path fill-rule="evenodd" clip-rule="evenodd" d="M8.52575 91.3494C8.50863 91.8773 8.5 92.4073 8.5 92.9393C8.5 119.537 30.062 141.099 56.66 141.099C83.258 141.099 104.82 119.537 104.82 92.9393C104.82 92.4073 104.811 91.8773 104.794 91.3495C104.811 90.8216 104.82 90.2916 104.82 89.7596C104.82 76.7144 99.6333 64.8806 91.2096 56.2079V22.8785C93.3588 22.8206 95.08 21.0634 95.08 18.9V9.98C95.08 7.78 93.3 6 91.1 6H85.6396H64.8596H48.4596H27.6796H22.23C20.03 6 18.25 7.78 18.25 9.98V18.9C18.25 21.0597 19.9654 22.8147 22.1096 22.8782V56.2027C14.0869 64.4648 9.0008 75.5947 8.53501 87.9062C8.51174 88.5211 8.5 89.139 8.5 89.7596L8.52575 91.3494Z"/>
</mask>
<path fill-rule="evenodd" clip-rule="evenodd" d="M8.52575 91.3494C8.50863 91.8773 8.5 92.4073 8.5 92.9393C8.5 119.537 30.062 141.099 56.66 141.099C83.258 141.099 104.82 119.537 104.82 92.9393C104.82 92.4073 104.811 91.8773 104.794 91.3495C104.811 90.8216 104.82 90.2916 104.82 89.7596C104.82 76.7144 99.6333 64.8806 91.2096 56.2079V22.8785C93.3588 22.8206 95.08 21.0634 95.08 18.9V9.98C95.08 7.78 93.3 6 91.1 6H85.6396H64.8596H48.4596H27.6796H22.23C20.03 6 18.25 7.78 18.25 9.98V18.9C18.25 21.0597 19.9654 22.8147 22.1096 22.8782V56.2027C14.0869 64.4648 9.0008 75.5947 8.53501 87.9062C8.51174 88.5211 8.5 89.139 8.5 89.7596L8.52575 91.3494Z" fill="#FFD6A1"/>
<path d="M5.50039 89.8082L5.52614 91.398L11.5254 91.3009L11.4996 89.711L5.50039 89.8082ZM8.52575 91.3494L14.5226 91.544L14.5273 91.3982L14.525 91.2523L8.52575 91.3494ZM104.794 91.3495L98.7974 91.155L98.7911 91.3495L98.7974 91.544L104.794 91.3495ZM91.2096 56.2079H85.2096V58.6422L86.9056 60.3883L91.2096 56.2079ZM91.2096 22.8785L91.0479 16.8807L85.2096 17.0381V22.8785H91.2096ZM22.1096 22.8782H28.1096V17.0534L22.2873 16.8809L22.1096 22.8782ZM22.1096 56.2027L26.4141 60.3825L28.1096 58.6364V56.2027H22.1096ZM8.53501 87.9062L14.5307 88.1331L14.5307 88.1331L8.53501 87.9062ZM8.5 89.7596H2.5V89.8082L2.50079 89.8568L8.5 89.7596ZM14.5 92.9393C14.5 92.4722 14.5076 92.007 14.5226 91.544L2.5289 91.1549C2.50968 91.7476 2.5 92.3424 2.5 92.9393H14.5ZM56.66 135.099C33.3757 135.099 14.5 116.224 14.5 92.9393H2.5C2.5 122.851 26.7483 147.099 56.66 147.099V135.099ZM98.82 92.9393C98.82 116.224 79.9443 135.099 56.66 135.099V147.099C86.5717 147.099 110.82 122.851 110.82 92.9393H98.82ZM98.7974 91.544C98.8124 92.007 98.82 92.4722 98.82 92.9393H110.82C110.82 92.3424 110.81 91.7476 110.791 91.155L98.7974 91.544ZM98.82 89.7596C98.82 90.2267 98.8124 90.6919 98.7974 91.155L110.791 91.544C110.81 90.9513 110.82 90.3565 110.82 89.7596H98.82ZM86.9056 60.3883C94.2856 67.9865 98.82 78.3374 98.82 89.7596H110.82C110.82 75.0914 104.981 61.7747 95.5135 52.0275L86.9056 60.3883ZM85.2096 22.8785V56.2079H97.2096V22.8785H85.2096ZM89.08 18.9C89.08 17.8042 89.956 16.9101 91.0479 16.8807L91.3713 28.8763C96.7616 28.731 101.08 24.3225 101.08 18.9H89.08ZM89.08 9.98V18.9H101.08V9.98H89.08ZM91.1 12C89.9863 12 89.08 11.0937 89.08 9.98H101.08C101.08 4.46628 96.6137 0 91.1 0V12ZM85.6396 12H91.1V0H85.6396V12ZM64.8596 12H85.6396V0H64.8596V12ZM48.4596 12H64.8596V0H48.4596V12ZM27.6796 12H48.4596V0H27.6796V12ZM22.23 12H27.6796V0H22.23V12ZM24.25 9.98C24.25 11.0937 23.3437 12 22.23 12V0C16.7163 0 12.25 4.46629 12.25 9.98H24.25ZM24.25 18.9V9.98H12.25V18.9H24.25ZM22.2873 16.8809C23.377 16.9131 24.25 17.806 24.25 18.9H12.25C12.25 24.3134 16.5538 28.7162 21.9318 28.8756L22.2873 16.8809ZM28.1096 56.2027V22.8782H16.1096V56.2027H28.1096ZM14.5307 88.1331C14.9383 77.3589 19.3844 67.6221 26.4141 60.3825L17.805 52.0229C8.78949 61.3076 3.06326 73.8304 2.5393 87.6794L14.5307 88.1331ZM14.5 89.7596C14.5 89.2147 14.5103 88.6725 14.5307 88.1331L2.5393 87.6794C2.51317 88.3698 2.5 89.0633 2.5 89.7596H14.5ZM14.525 91.2523L14.4992 89.6625L2.50079 89.8568L2.52653 91.4466L14.525 91.2523Z" fill="white" fill-opacity="0.21" mask="url(#path-1-outside-1_3462_465)"/>
<path d="M113.773 121.732L111.733 123.772C111.343 124.162 110.713 124.162 110.333 123.772L108.292 121.732C107.903 121.342 107.903 120.712 108.292 120.332L110.333 118.292C110.723 117.903 111.353 117.903 111.733 118.292L113.773 120.332C114.163 120.712 114.163 121.342 113.773 121.732Z" fill="#FFCE8E"/>
<path d="M10.1325 59.0199L7.4125 61.7399C6.3425 62.8099 4.6025 62.8099 3.5225 61.7399L0.8025 59.0199C-0.2675 57.9499 -0.2675 56.2099 0.8025 55.1299L3.5225 52.4099C4.5925 51.3399 6.3325 51.3399 7.4125 52.4099L10.1325 55.1299C11.2025 56.1999 11.2025 57.9499 10.1325 59.0199Z" fill="#FFCE8E"/>
<path d="M85.6425 72.25H27.6825C24.6025 72.25 22.1125 69.75 22.1125 66.68V11.57C22.1125 8.5 24.6025 6 27.6825 6H85.6425C88.7225 6 91.2125 8.5 91.2125 11.57V66.67C91.2225 69.75 88.7225 72.25 85.6425 72.25Z" fill="#CD7900"/>
<path d="M64.8626 72.25H48.4626C45.3826 72.25 42.8926 69.75 42.8926 66.68V11.57C42.8926 8.49 45.3926 6 48.4626 6H64.8626C67.9426 6 70.4326 8.5 70.4326 11.57V66.67C70.4426 69.75 67.9426 72.25 64.8626 72.25Z" fill="white"/>
<path d="M91.1029 22.88H22.2329C20.0329 22.88 18.2529 21.1 18.2529 18.9V9.98C18.2529 7.78 20.0329 6 22.2329 6H91.1029C93.3029 6 95.0829 7.78 95.0829 9.98V18.9C95.0829 21.1 93.3029 22.88 91.1029 22.88Z" fill="#A56644"/>
<path d="M56.6629 141.099C83.261 141.099 104.823 119.537 104.823 92.9393C104.823 66.3413 83.261 44.7793 56.6629 44.7793C30.0649 44.7793 8.50293 66.3413 8.50293 92.9393C8.50293 119.537 30.0649 141.099 56.6629 141.099Z" fill="#A56644"/>
<path d="M56.6629 137.92C83.261 137.92 104.823 116.358 104.823 89.7596C104.823 63.1616 83.261 41.5996 56.6629 41.5996C30.0649 41.5996 8.50293 63.1616 8.50293 89.7596C8.50293 116.358 30.0649 137.92 56.6629 137.92Z" fill="#FFCE8E"/>
<path d="M56.663 129.631C78.6826 129.631 96.533 111.78 96.533 89.7606C96.533 67.741 78.6826 49.8906 56.663 49.8906C34.6434 49.8906 16.793 67.741 16.793 89.7606C16.793 111.78 34.6434 129.631 56.663 129.631Z" fill="#CD7900"/>
<g opacity="0.17">
<path d="M56.6629 41.5898C69.6429 41.5898 81.4229 46.7198 90.0829 55.0698L21.9829 123.17C13.6329 114.51 8.50293 102.73 8.50293 89.7598C8.50293 63.1598 30.0629 41.5898 56.6629 41.5898Z" fill="white"/>
</g>
<path d="M31.5525 85.2802L33.0825 83.6402C33.3825 83.3202 33.7025 83.0103 34.0325 82.7203C34.3625 82.4303 34.7125 82.1502 35.0725 81.8902C35.4325 81.6302 35.8025 81.3902 36.1825 81.1702C36.5625 80.9502 36.9525 80.7502 37.3625 80.5602C37.7625 80.3802 38.1725 80.2102 38.5925 80.0702C39.0125 79.9302 39.4325 79.8102 39.8625 79.7002C40.2925 79.6002 40.7225 79.5202 41.1625 79.4602C41.6025 79.4002 42.0425 79.3602 42.4825 79.3502C42.9225 79.3302 43.3625 79.3403 43.8025 79.3703C44.2425 79.4003 44.6825 79.4502 45.1225 79.5202C45.5625 79.5902 45.9925 79.6803 46.4125 79.8003C46.8425 79.9103 47.2625 80.0502 47.6725 80.2002C48.0825 80.3502 48.4925 80.5303 48.8925 80.7203C49.2925 80.9103 49.6725 81.1302 50.0525 81.3602C50.4325 81.5902 50.7925 81.8402 51.1425 82.1102C51.4925 82.3802 51.8325 82.6602 52.1525 82.9602L70.7925 100.35C70.9725 100.52 71.1425 100.69 71.3025 100.88C71.4625 101.06 71.6225 101.26 71.7625 101.46C71.9025 101.66 72.0425 101.87 72.1625 102.08C72.2825 102.29 72.4025 102.51 72.5025 102.74C72.6025 102.96 72.6925 103.19 72.7725 103.43C72.8525 103.67 72.9225 103.9 72.9725 104.14C73.0325 104.38 73.0725 104.62 73.1025 104.87C73.1325 105.11 73.1525 105.36 73.1625 105.61C73.1725 105.86 73.1725 106.1 73.1525 106.35C73.1325 106.6 73.1125 106.84 73.0725 107.08C73.0325 107.32 72.9825 107.56 72.9225 107.8C72.8625 108.04 72.7825 108.27 72.7025 108.5C72.6125 108.73 72.5225 108.96 72.4125 109.18C72.3025 109.4 72.1825 109.62 72.0525 109.83C71.9225 110.04 71.7825 110.24 71.6325 110.44C71.4825 110.64 71.3225 110.82 71.1525 111L61.4825 121.36C61.3125 121.54 61.1425 121.71 60.9525 121.87C60.7725 122.03 60.5725 122.19 60.3725 122.33C60.1725 122.47 59.9625 122.61 59.7525 122.73C59.5425 122.85 59.3225 122.97 59.0925 123.07C58.8725 123.17 58.6425 123.26 58.4025 123.34C58.1725 123.42 57.9325 123.49 57.6925 123.54C57.4525 123.6 57.2125 123.64 56.9625 123.67C56.7225 123.7 56.4725 123.72 56.2225 123.73C55.9725 123.74 55.7325 123.74 55.4825 123.72C55.2325 123.7 54.9925 123.68 54.7525 123.64C54.5125 123.6 54.2725 123.55 54.0325 123.49C53.7925 123.43 53.5625 123.35 53.3325 123.27C53.1025 123.18 52.8725 123.09 52.6525 122.98C52.4325 122.87 52.2125 122.75 52.0025 122.62C51.7925 122.49 51.5925 122.35 51.3925 122.2C51.1925 122.05 51.0125 121.89 50.8325 121.72L32.2125 104.34C31.8925 104.04 31.5825 103.72 31.2925 103.39C31.0025 103.06 30.7225 102.71 30.4625 102.35C30.2025 101.99 29.9625 101.62 29.7425 101.24C29.5225 100.86 29.3225 100.47 29.1325 100.06C28.9525 99.6602 28.7825 99.2503 28.6425 98.8303C28.5025 98.4103 28.3825 97.9902 28.2725 97.5602C28.1725 97.1302 28.0925 96.7003 28.0325 96.2603C27.9725 95.8203 27.9325 95.3803 27.9225 94.9403C27.9025 94.5003 27.9125 94.0603 27.9425 93.6203C27.9725 93.1803 28.0225 92.7403 28.0925 92.3003C28.1625 91.8603 28.2525 91.4303 28.3725 91.0103C28.4925 90.5903 28.6225 90.1602 28.7725 89.7502C28.9225 89.3402 29.1025 88.9302 29.2925 88.5302C29.4825 88.1302 29.7025 87.7503 29.9325 87.3703C30.1625 86.9903 30.4125 86.6302 30.6825 86.2802C30.9625 85.9402 31.2425 85.6002 31.5525 85.2802Z" fill="#A56644"/>
<path d="M78.4626 83.37L80.0126 84.99C80.3226 85.31 80.6026 85.64 80.8826 85.99C81.1526 86.34 81.4126 86.7 81.6426 87.07C81.8726 87.44 82.0926 87.83 82.2926 88.22C82.4926 88.61 82.6726 89.02 82.8326 89.43C82.9926 89.84 83.1326 90.26 83.2526 90.69C83.3726 91.12 83.4726 91.55 83.5426 91.98C83.6226 92.42 83.6726 92.85 83.7026 93.29C83.7326 93.73 83.7426 94.17 83.7326 94.61C83.7226 95.05 83.6926 95.49 83.6326 95.93C83.5826 96.37 83.5026 96.8 83.4126 97.23C83.3126 97.66 83.2026 98.09 83.0626 98.51C82.9226 98.93 82.7626 99.34 82.5926 99.75C82.4126 100.15 82.2126 100.55 82.0026 100.93C81.7926 101.31 81.5526 101.69 81.2926 102.05C81.0426 102.41 80.7726 102.76 80.4826 103.09C80.1926 103.42 79.8926 103.74 79.5726 104.05L61.1326 121.65C60.9526 121.82 60.7726 121.98 60.5726 122.13C60.3826 122.28 60.1726 122.42 59.9726 122.56C59.7626 122.69 59.5526 122.81 59.3326 122.92C59.1126 123.03 58.8926 123.13 58.6626 123.22C58.4326 123.31 58.2026 123.39 57.9626 123.45C57.7226 123.51 57.4826 123.57 57.2426 123.61C57.0026 123.65 56.7526 123.68 56.5126 123.7C56.2626 123.72 56.0226 123.72 55.7726 123.72C55.5226 123.71 55.2826 123.7 55.0326 123.67C54.7926 123.64 54.5426 123.6 54.3026 123.54C54.0626 123.49 53.8226 123.42 53.5926 123.34C53.3626 123.26 53.1326 123.17 52.9026 123.08C52.6726 122.99 52.4526 122.87 52.2426 122.75C52.0326 122.63 51.8226 122.5 51.6226 122.36C51.4226 122.22 51.2226 122.07 51.0426 121.91C50.8526 121.75 50.6726 121.58 50.5026 121.4L40.7126 111.15C40.5426 110.97 40.3826 110.79 40.2326 110.59C40.0826 110.4 39.9426 110.19 39.8026 109.99C39.6726 109.78 39.5526 109.57 39.4426 109.35C39.3326 109.13 39.2326 108.91 39.1426 108.68C39.0526 108.45 38.9726 108.22 38.9126 107.98C38.8426 107.74 38.7926 107.5 38.7526 107.26C38.7126 107.02 38.6826 106.77 38.6626 106.53C38.6426 106.28 38.6426 106.04 38.6426 105.79C38.6526 105.54 38.6626 105.3 38.6926 105.05C38.7226 104.81 38.7626 104.56 38.8226 104.32C38.8726 104.08 38.9426 103.84 39.0226 103.61C39.1026 103.38 39.1926 103.15 39.2826 102.92C39.3826 102.69 39.4926 102.47 39.6126 102.26C39.7326 102.05 39.8626 101.84 40.0026 101.64C40.1426 101.44 40.2926 101.24 40.4526 101.06C40.6126 100.87 40.7826 100.69 40.9626 100.52L59.4026 82.92C59.7226 82.61 60.0526 82.33 60.4026 82.05C60.7526 81.78 61.1126 81.52 61.4826 81.29C61.8526 81.05 62.2426 80.84 62.6326 80.64C63.0226 80.44 63.4326 80.26 63.8426 80.1C64.2526 79.94 64.6726 79.8 65.1026 79.68C65.5326 79.56 65.9626 79.46 66.3926 79.39C66.8326 79.31 67.2626 79.26 67.7026 79.23C68.1426 79.2 68.5826 79.19 69.0226 79.2C69.4626 79.21 69.9026 79.24 70.3426 79.3C70.7826 79.35 71.2126 79.43 71.6426 79.52C72.0726 79.62 72.5026 79.73 72.9226 79.87C73.3426 80.01 73.7526 80.17 74.1626 80.34C74.5626 80.52 74.9626 80.72 75.3426 80.93C75.7226 81.15 76.1026 81.38 76.4626 81.64C76.8226 81.89 77.1726 82.16 77.5026 82.45C77.8426 82.75 78.1626 83.05 78.4626 83.37Z" fill="#A56644"/>
<path d="M38.0021 84.9998C38.4321 84.8698 38.8721 84.7898 39.3221 84.7398C39.7721 84.6998 40.2221 84.6998 40.6721 84.7498C41.1221 84.7998 41.5621 84.8898 41.9921 85.0198C42.4221 85.1498 42.8421 85.3298 43.2321 85.5398C43.6321 85.7598 44.0021 86.0098 44.3521 86.2998C44.7021 86.5898 45.0121 86.9098 45.3021 87.2598C45.5821 87.6098 45.8321 87.9898 46.0421 88.3898C46.2521 88.7898 46.4221 89.2098 46.5521 89.6398C46.6821 90.0698 46.7621 90.5098 46.8121 90.9598C46.8621 91.4098 46.8521 91.8598 46.8021 92.3098C46.7521 92.7598 46.6621 93.1998 46.5321 93.6298C46.4021 94.0598 46.2221 94.4798 46.0121 94.8698C45.7921 95.2698 45.5421 95.6398 45.2521 95.9898C44.9621 96.3398 44.6421 96.6498 44.2921 96.9398C43.9421 97.2198 43.5621 97.4698 43.1621 97.6798C42.7621 97.8898 42.3421 98.0598 41.9121 98.1898C41.4821 98.3198 41.0421 98.3998 40.5921 98.4498C40.1421 98.4898 39.6921 98.4898 39.2421 98.4398C38.7921 98.3898 38.3521 98.2998 37.9221 98.1698C37.4921 98.0398 37.0721 97.8598 36.6821 97.6498C36.2821 97.4298 35.9121 97.1798 35.5621 96.8898C35.2121 96.5998 34.9021 96.2798 34.6121 95.9298C34.3221 95.5798 34.0821 95.1998 33.8721 94.7998C33.6621 94.3998 33.4921 93.9798 33.3621 93.5498C33.2321 93.1198 33.1521 92.6798 33.1021 92.2298C33.0621 91.7798 33.0621 91.3298 33.1121 90.8798C33.1621 90.4298 33.2521 89.9898 33.3821 89.5598C33.5121 89.1298 33.6921 88.7098 33.9021 88.3198C34.1121 87.9298 34.3721 87.5498 34.6621 87.1998C34.9521 86.8498 35.2721 86.5398 35.6221 86.2498C35.9721 85.9698 36.3521 85.7198 36.7521 85.5098C37.1621 85.2998 37.5721 85.1298 38.0021 84.9998Z" fill="#DCAB91"/>
<path d="M45.2339 62.6544L45.9015 61.9389C46.0324 61.7993 46.172 61.664 46.316 61.5375C46.46 61.4109 46.6127 61.2888 46.7698 61.1753C46.9268 61.0619 47.0883 60.9571 47.2541 60.8612C47.4199 60.7652 47.5901 60.6779 47.769 60.595C47.9435 60.5165 48.1224 60.4423 48.3056 60.3812C48.4889 60.3201 48.6721 60.2677 48.8598 60.2198C49.0474 60.1761 49.235 60.1412 49.427 60.115C49.619 60.0889 49.811 60.0714 50.0029 60.067C50.1949 60.0583 50.3869 60.0627 50.5789 60.0758C50.7709 60.0889 50.9629 60.1107 51.1548 60.1412C51.3468 60.1718 51.5344 60.211 51.7177 60.2634C51.9053 60.3114 52.0886 60.3725 52.2675 60.4379C52.4464 60.5034 52.6253 60.5819 52.7998 60.6648C52.9743 60.7477 53.1401 60.8437 53.3059 60.9441C53.4717 61.0444 53.6288 61.1535 53.7815 61.2713C53.9342 61.3891 54.0826 61.5113 54.2222 61.6422L62.3553 69.2299C62.4338 69.304 62.508 69.3782 62.5778 69.4611C62.6476 69.5397 62.7175 69.6269 62.7785 69.7142C62.8396 69.8015 62.9007 69.8931 62.9531 69.9847C63.0054 70.0763 63.0578 70.1723 63.1014 70.2727C63.1451 70.3687 63.1843 70.469 63.2192 70.5737C63.2541 70.6785 63.2847 70.7788 63.3065 70.8835C63.3327 70.9883 63.3501 71.093 63.3632 71.2021C63.3763 71.3068 63.385 71.4159 63.3894 71.5249C63.3938 71.634 63.3938 71.7387 63.385 71.8478C63.3763 71.9569 63.3676 72.0616 63.3501 72.1663C63.3327 72.2711 63.3109 72.3758 63.2847 72.4805C63.2585 72.5852 63.2236 72.6856 63.1887 72.7859C63.1494 72.8863 63.1101 72.9866 63.0622 73.0826C63.0142 73.1786 62.9618 73.2746 62.9051 73.3662C62.8484 73.4579 62.7873 73.5451 62.7218 73.6324C62.6564 73.7197 62.5866 73.7982 62.5124 73.8767L58.2931 78.3971C58.2189 78.4756 58.1448 78.5498 58.0619 78.6196C57.9833 78.6894 57.8961 78.7592 57.8088 78.8203C57.7215 78.8814 57.6299 78.9425 57.5383 78.9948C57.4466 79.0472 57.3507 79.0995 57.2503 79.1432C57.1543 79.1868 57.054 79.2261 56.9492 79.261C56.8489 79.2959 56.7442 79.3264 56.6394 79.3482C56.5347 79.3744 56.43 79.3919 56.3209 79.405C56.2162 79.4181 56.1071 79.4268 55.998 79.4312C55.889 79.4355 55.7842 79.4355 55.6752 79.4268C55.5661 79.4181 55.4614 79.4093 55.3567 79.3919C55.2519 79.3744 55.1472 79.3526 55.0425 79.3264C54.9378 79.3003 54.8374 79.2653 54.7371 79.2304C54.6367 79.1912 54.5364 79.1519 54.4404 79.1039C54.3444 79.0559 54.2484 79.0036 54.1568 78.9468C54.0651 78.8901 53.9779 78.829 53.8906 78.7636C53.8033 78.6981 53.7248 78.6283 53.6463 78.5541L45.5219 70.9708C45.3823 70.8399 45.247 70.7003 45.1205 70.5563C44.9939 70.4123 44.8718 70.2596 44.7583 70.1025C44.6449 69.9454 44.5402 69.784 44.4442 69.6182C44.3482 69.4524 44.2609 69.2822 44.178 69.1033C44.0995 68.9288 44.0253 68.7499 43.9642 68.5667C43.9031 68.3834 43.8508 68.2001 43.8028 68.0125C43.7591 67.8249 43.7242 67.6373 43.698 67.4453C43.6719 67.2533 43.6544 67.0613 43.65 66.8693C43.6413 66.6774 43.6457 66.4854 43.6588 66.2934C43.6719 66.1014 43.6937 65.9094 43.7242 65.7175C43.7548 65.5255 43.794 65.3378 43.8464 65.1546C43.8988 64.9713 43.9555 64.7837 44.0209 64.6048C44.0864 64.4259 44.1649 64.247 44.2478 64.0725C44.3307 63.898 44.4267 63.7322 44.5271 63.5664C44.6274 63.4006 44.7365 63.2435 44.8543 63.0908C44.9765 62.9424 45.0986 62.7941 45.2339 62.6544Z" fill="#A56644"/>
<path d="M65.7019 61.8211L66.3782 62.528C66.5134 62.6676 66.6356 62.8116 66.7578 62.9643C66.8756 63.117 66.989 63.2741 67.0894 63.4355C67.1897 63.597 67.2857 63.7671 67.373 63.9373C67.4602 64.1075 67.5388 64.2863 67.6086 64.4652C67.6784 64.6441 67.7395 64.8274 67.7919 65.015C67.8442 65.2026 67.8878 65.3903 67.9184 65.5779C67.9533 65.7699 67.9751 65.9575 67.9882 66.1495C68.0013 66.3414 68.0057 66.5334 68.0013 66.7254C67.9969 66.9174 67.9838 67.1094 67.9577 67.3014C67.9358 67.4933 67.9009 67.681 67.8617 67.8686C67.818 68.0562 67.77 68.2438 67.709 68.4271C67.6479 68.6103 67.5781 68.7892 67.5039 68.9681C67.4253 69.1426 67.3381 69.3172 67.2464 69.483C67.1548 69.6488 67.0501 69.8146 66.9367 69.9717C66.8276 70.1287 66.7098 70.2815 66.5832 70.4254C66.4567 70.5694 66.3258 70.7091 66.1862 70.8443L58.1403 78.5236C58.0618 78.5978 57.9833 78.6676 57.896 78.7331C57.8131 78.7985 57.7215 78.8596 57.6342 78.9207C57.5426 78.9774 57.451 79.0298 57.355 79.0778C57.259 79.1258 57.163 79.1694 57.0626 79.2087C56.9623 79.2479 56.8619 79.2828 56.7572 79.309C56.6525 79.3352 56.5478 79.3614 56.443 79.3788C56.3383 79.3963 56.2292 79.4094 56.1245 79.4181C56.0154 79.4268 55.9107 79.4268 55.8016 79.4268C55.6926 79.4225 55.5878 79.4181 55.4788 79.405C55.374 79.3919 55.265 79.3745 55.1602 79.3483C55.0555 79.3265 54.9508 79.2959 54.8505 79.261C54.7501 79.2261 54.6497 79.1869 54.5494 79.1476C54.449 79.1083 54.353 79.056 54.2614 79.0036C54.1698 78.9512 54.0782 78.8945 53.9909 78.8334C53.9036 78.7723 53.8164 78.7069 53.7378 78.6371C53.6549 78.5673 53.5764 78.4931 53.5022 78.4146L49.2306 73.9422C49.1564 73.8637 49.0866 73.7851 49.0211 73.6979C48.9557 73.615 48.8946 73.5234 48.8335 73.4361C48.7768 73.3445 48.7244 73.2528 48.6765 73.1568C48.6285 73.0608 48.5848 72.9649 48.5456 72.8645C48.5063 72.7641 48.4714 72.6638 48.4452 72.5591C48.4147 72.4544 48.3928 72.3496 48.3754 72.2449C48.3579 72.1402 48.3448 72.0311 48.3361 71.9264C48.3274 71.8173 48.3274 71.7126 48.3274 71.6035C48.3318 71.4944 48.3361 71.3897 48.3492 71.2806C48.3623 71.1759 48.3798 71.0668 48.4059 70.9621C48.4277 70.8574 48.4583 70.7527 48.4932 70.6523C48.5281 70.552 48.5674 70.4516 48.6066 70.3513C48.6503 70.2509 48.6983 70.1549 48.7506 70.0633C48.803 69.9717 48.8597 69.88 48.9208 69.7928C48.9819 69.7055 49.0473 69.6182 49.1171 69.5397C49.187 69.4568 49.2611 69.3783 49.3397 69.3041L57.3855 61.6248C57.5251 61.4895 57.6691 61.3673 57.8218 61.2452C57.9745 61.1274 58.1316 61.0139 58.2931 60.9136C58.4545 60.8088 58.6247 60.7172 58.7948 60.6299C58.965 60.5427 59.1439 60.4641 59.3228 60.3943C59.5017 60.3245 59.6849 60.2634 59.8726 60.2111C60.0602 60.1587 60.2478 60.1151 60.4354 60.0845C60.6274 60.0496 60.815 60.0278 61.007 60.0147C61.199 60.0016 61.391 59.9973 61.5829 60.0016C61.7749 60.006 61.9669 60.0191 62.1589 60.0453C62.3509 60.0671 62.5385 60.102 62.7261 60.1413C62.9137 60.1849 63.1014 60.2329 63.2846 60.294C63.4679 60.3551 63.6468 60.4249 63.8257 60.499C64.0002 60.5776 64.1747 60.6649 64.3405 60.7565C64.5063 60.8525 64.6721 60.9528 64.8292 61.0663C64.9863 61.1754 65.139 61.2932 65.283 61.4197C65.4313 61.5506 65.571 61.6815 65.7019 61.8211Z" fill="#A56644"/>
<path d="M48.048 62.5323C48.2357 62.4756 48.4276 62.4407 48.624 62.4188C48.8203 62.4014 49.0167 62.4014 49.213 62.4232C49.4094 62.445 49.6014 62.4843 49.789 62.541C49.9766 62.5977 50.1599 62.6763 50.33 62.7679C50.5046 62.8639 50.666 62.973 50.8187 63.0995C50.9714 63.226 51.1067 63.3657 51.2332 63.5184C51.3554 63.6711 51.4645 63.8369 51.5561 64.0114C51.6477 64.186 51.7219 64.3692 51.7786 64.5568C51.8353 64.7445 51.8703 64.9364 51.8921 65.1328C51.9139 65.3291 51.9095 65.5255 51.8877 65.7218C51.8659 65.9182 51.8266 66.1101 51.7699 66.2978C51.7132 66.4854 51.6346 66.6686 51.543 66.8388C51.447 67.0133 51.3379 67.1748 51.2114 67.3275C51.0849 67.4802 50.9452 67.6155 50.7925 67.742C50.6398 67.8642 50.474 67.9733 50.2995 68.0649C50.125 68.1565 49.9417 68.2307 49.7541 68.2874C49.5665 68.3441 49.3745 68.379 49.1781 68.4009C48.9818 68.4183 48.7854 68.4183 48.5891 68.3965C48.3927 68.3747 48.2008 68.3354 48.0131 68.2787C47.8255 68.222 47.6423 68.1434 47.4721 68.0518C47.2976 67.9558 47.1361 67.8467 46.9834 67.7202C46.8307 67.5937 46.6954 67.454 46.5689 67.3013C46.4424 67.1486 46.3376 66.9828 46.246 66.8083C46.1544 66.6337 46.0802 66.4505 46.0235 66.2629C45.9668 66.0752 45.9319 65.8833 45.9101 65.6869C45.8926 65.4906 45.8926 65.2942 45.9144 65.0979C45.9362 64.9015 45.9755 64.7095 46.0322 64.5219C46.0889 64.3343 46.1675 64.1511 46.2591 63.9809C46.3507 63.8107 46.4642 63.6449 46.5907 63.4922C46.7173 63.3395 46.8569 63.2042 47.0096 63.0777C47.1623 62.9555 47.3281 62.8464 47.5026 62.7548C47.6815 62.6632 47.8604 62.589 48.048 62.5323Z" fill="#DCAB91"/>
</svg>
