<svg width="221" height="221" viewBox="0 0 221 221" fill="none" xmlns="http://www.w3.org/2000/svg">
<rect width="221" height="221" rx="25" fill="#FFE0E0"/>
<path d="M42.4175 115.986C44.7896 115.79 47.1358 115.355 49.42 114.686C49.9223 114.525 50.3592 114.207 50.6656 113.778C50.972 113.348 51.1314 112.832 51.1202 112.304C50.9939 109.7 50.5862 107.117 49.9041 104.601C48.808 99.6012 46.0159 95.1352 42.0016 91.9603C37.6958 89.1947 32.5658 88.0041 27.4821 88.5904C27.2531 88.6104 27.0276 88.6301 26.8021 88.6498C24.4294 88.8457 22.0827 89.2814 19.7978 89.9503C19.2963 90.1115 18.8602 90.4304 18.5545 90.8594C18.2488 91.2885 18.0898 91.8048 18.1012 92.3315C18.2276 94.9358 18.6353 97.5188 19.3173 100.035C20.4122 105.035 23.2031 109.502 27.2164 112.678C31.5239 115.441 36.655 116.629 41.7388 116.04C41.9693 116.024 42.1956 116.006 42.4175 115.986Z" fill="#FF9494"/>
<path d="M81.3202 177.441C85.4186 177.217 89.3575 175.778 92.6353 173.307C96.4444 169.889 98.9536 165.259 99.7373 160.202C100.268 157.648 100.517 155.044 100.479 152.437C100.458 151.91 100.266 151.404 99.9341 150.995C99.6019 150.586 99.1463 150.295 98.6353 150.166C96.0885 149.589 93.4858 149.294 90.8744 149.287C89.8673 149.279 88.8678 149.319 87.9078 149.402C83.8096 149.629 79.8715 151.069 76.5949 153.541C72.786 156.959 70.2768 161.59 69.4929 166.647C68.9622 169.201 68.7135 171.805 68.7511 174.412C68.7727 174.939 68.9639 175.444 69.2961 175.854C69.6284 176.263 70.0839 176.554 70.5949 176.683C73.1378 177.257 75.7361 177.551 78.343 177.558C79.359 177.565 80.3602 177.525 81.3202 177.441Z" fill="#FF9494"/>
<path d="M50.8719 151.963C54.7574 151.521 58.4821 150.162 61.7383 147.996C63.9516 146.617 66.0068 145 67.8668 143.172C68.2334 142.793 68.4676 142.306 68.5345 141.783C68.6014 141.259 68.4974 140.729 68.2381 140.27C66.8958 138.034 65.3152 135.951 63.5241 134.057C60.1943 130.171 55.6231 127.557 50.5857 126.658C49.4179 126.512 48.2379 126.492 47.0659 126.598C43.1803 127.039 39.4556 128.399 36.1995 130.565C33.9861 131.942 31.9308 133.559 30.0706 135.385C29.7041 135.764 29.4701 136.252 29.4035 136.775C29.3369 137.298 29.4413 137.829 29.7011 138.288C31.0436 140.522 32.6242 142.606 34.4151 144.5C37.7442 148.388 42.3157 151.004 47.354 151.904C47.5334 151.926 47.7001 151.945 47.8757 151.964C48.8724 152.053 49.8752 152.052 50.8719 151.963Z" fill="#FF9494"/>
<path d="M52.6353 79.0389C53.0652 79.0013 53.4775 78.8502 53.83 78.6011C54.1824 78.352 54.4625 78.0139 54.6415 77.6212C55.666 75.2242 56.4283 72.7235 56.9153 70.1626C58.1213 65.1914 57.5712 59.956 55.3582 55.344C52.6952 50.9714 48.6011 47.6551 43.7709 45.958C41.3573 44.9734 38.8442 44.2532 36.2755 43.8099C35.7531 43.7322 35.2197 43.8267 34.7558 44.0792C34.292 44.3318 33.9231 44.7286 33.705 45.2095C32.6775 47.6046 31.912 50.1038 31.422 52.6635C30.2175 57.6378 30.771 62.8757 32.9885 67.4884C35.649 71.8587 39.739 75.1745 44.565 76.8736C46.9786 77.8582 49.4917 78.5784 52.0605 79.0217C52.2507 79.05 52.4437 79.0558 52.6353 79.0389Z" fill="#FF9494"/>
<path d="M177.424 116.008C175.052 115.812 172.706 115.376 170.423 114.707C169.92 114.547 169.484 114.228 169.177 113.799C168.871 113.37 168.711 112.853 168.723 112.326C168.849 109.722 169.257 107.139 169.939 104.622C171.034 99.623 173.825 95.1569 177.838 91.9814C182.145 89.2171 187.276 88.0284 192.36 88.6171C192.587 88.6369 192.813 88.6566 193.035 88.676C195.408 88.8719 197.754 89.3077 200.039 89.9766C200.541 90.1368 200.977 90.4546 201.283 90.8827C201.59 91.3109 201.75 91.8264 201.74 92.3528C201.613 94.9571 201.206 97.5401 200.524 100.057C199.428 105.056 196.637 109.522 192.623 112.697C188.317 115.463 183.186 116.654 178.102 116.067C177.872 116.047 177.645 116.027 177.424 116.008Z" fill="#FF9494"/>
<path d="M138.523 177.464C134.425 177.238 130.486 175.797 127.209 173.325C123.4 169.907 120.89 165.276 120.107 160.219C119.576 157.665 119.327 155.061 119.365 152.454C119.387 151.927 119.578 151.421 119.91 151.012C120.242 150.603 120.698 150.312 121.209 150.183C123.752 149.608 126.35 149.315 128.957 149.308C129.971 149.301 130.97 149.34 131.931 149.424C136.03 149.648 139.97 151.087 143.249 153.558C147.059 156.978 149.568 161.61 150.351 166.67C150.881 169.223 151.13 171.827 151.092 174.435C151.071 174.962 150.879 175.467 150.546 175.877C150.213 176.286 149.757 176.576 149.245 176.705C146.702 177.28 144.104 177.574 141.497 177.581C140.485 177.587 139.483 177.547 138.523 177.464Z" fill="#FF9494"/>
<path d="M168.971 151.991C165.083 151.551 161.356 150.191 158.097 148.024C155.884 146.645 153.829 145.028 151.969 143.2C151.602 142.821 151.368 142.334 151.301 141.811C151.234 141.288 151.338 140.757 151.598 140.298C152.94 138.063 154.521 135.979 156.312 134.085C159.64 130.198 164.211 127.582 169.249 126.681C170.417 126.535 171.597 126.515 172.769 126.621C176.654 127.062 180.379 128.422 183.635 130.587C185.849 131.966 187.904 133.584 189.764 135.411C190.132 135.79 190.368 136.277 190.436 136.801C190.504 137.324 190.401 137.856 190.142 138.316C188.799 140.551 187.219 142.634 185.428 144.529C182.099 148.416 177.527 151.031 172.489 151.931C172.31 151.953 172.143 151.972 171.967 151.989C170.971 152.079 169.968 152.08 168.971 151.991Z" fill="#FF9494"/>
<path d="M167.206 79.0628C166.776 79.0252 166.364 78.8741 166.011 78.625C165.659 78.3759 165.379 78.0378 165.2 77.645C164.173 75.2487 163.408 72.7484 162.919 70.1877C161.715 65.2152 162.267 59.9794 164.483 55.3679C167.145 50.9961 171.237 47.6797 176.065 45.9814C178.479 44.9969 180.992 44.2766 183.56 43.8333C184.083 43.7548 184.616 43.8487 185.08 44.1006C185.545 44.3525 185.914 44.7489 186.133 45.2296C187.162 47.6275 187.928 50.1298 188.419 52.6927C189.622 57.6647 189.068 62.8998 186.853 67.5106C184.193 71.8815 180.102 75.1979 175.276 76.8975C172.863 77.8821 170.349 78.6023 167.781 79.0456C167.59 79.0739 167.397 79.0797 167.206 79.0628Z" fill="#FF9494"/>
<path d="M72.6211 110.55V110.56L72.6212 110.57C72.9022 128.435 90.2729 142.486 111.19 142.486C132.107 142.486 149.482 128.429 149.759 110.569L149.759 110.56V110.55V110.55V110.55V110.549V110.549V110.549V110.549V110.549V110.548V110.548V110.548V110.548V110.547V110.547V110.547V110.547V110.547V110.546V110.546V110.546V110.546V110.546V110.545V110.545V110.545V110.545V110.545V110.544V110.544V110.544V110.544V110.544V110.543V110.543V110.543V110.543V110.542V110.542V110.542V110.542V110.542V110.541V110.541V110.541V110.541V110.541V110.54V110.54V110.54V110.54V110.54V110.539V110.539V110.539V110.539V110.539V110.538V110.538V110.538V110.538V110.538V110.537V110.537V110.537V110.537V110.536V110.536V110.536V110.536V110.536V110.535V110.535V110.535V110.535V110.535V110.534V110.534V110.534V110.534V110.534V110.533V110.533V110.533V110.533V110.533V110.532V110.532V110.532V110.532V110.532V110.531V110.531V110.531V110.531V110.53V110.53V110.53V110.53V110.53V110.529V110.529V110.529V110.529V110.529V110.528V110.528V110.528V110.528V110.528V110.527V110.527V110.527V110.527V110.527V110.526V110.526V110.526V110.526V110.525V110.525V110.525V110.525V110.525V110.524V110.524V110.524V110.524V110.524V110.523V110.523V110.523V110.523V110.523V110.522V110.522V110.522V110.522V110.522V110.521V110.521V110.521V110.521V110.521V110.52V110.52V110.52V110.52V110.519V110.519V110.519V110.519V110.519V110.518V110.518V110.518V110.518V110.518V110.517V110.517V110.517V110.517V110.517V110.516V110.516V110.516V110.516V110.516V110.515V110.515V110.515V110.515V110.515V110.514V110.514V110.514V110.514V110.513V110.513V110.513V110.513V110.513V110.512V110.512V110.512V110.512V110.512V110.511V110.511V110.511V110.511V110.511V110.51V110.51V110.51V110.51V110.51V110.509V110.509V110.509V110.509V110.508V110.508V110.508V110.508V110.508V110.507V110.507V110.507V110.507V110.507V110.506V110.506V110.506V110.506V110.506V110.505V110.505V110.505V110.505V110.505V110.504V110.504V110.504V110.504V110.504V110.503V110.503V110.503V110.503V110.502V110.502V110.502V110.502V110.502V110.501V110.501V110.501V110.501V110.501V110.5V110.5V110.5V110.5V110.5V110.499V110.499V110.499V110.499V110.499V110.498V110.498V110.498V110.498V110.498V110.497V110.497V110.497V110.497V110.496V110.496V110.496V110.496V110.496V110.495V110.495V110.495V110.495V110.495V110.494V110.494V110.494V110.494V110.494V110.493V110.493V110.493V110.493V110.493V110.492V110.492V110.492V110.492V110.492V110.491V110.491V110.491V110.491V110.49V110.49V110.49V110.49V110.49V110.489V110.489V110.489V110.489V110.489V110.488V110.488V110.488V110.488V110.488V110.487V110.487V110.487V110.487V110.487V110.486V110.486V110.486V110.486V110.485V110.485V110.485V110.485V110.485V110.484V110.484V110.484V110.484V110.484V110.483V110.483V110.483V110.483V110.483V110.482V110.482V110.482V110.482V110.482V110.481V110.481V110.481V110.481V110.481V110.48V110.48V110.48V110.48V110.479V110.479V110.479V110.479V110.479V110.478V110.478V110.478V110.478V110.478V110.477V110.477V110.477V110.477V110.477V110.476V110.476V110.476V110.476V110.476V110.475V110.475V110.475V110.475V110.475V110.474V110.474V110.474V110.474V110.473V110.473V110.473V110.473V110.473V110.472V110.472V110.472V110.472V110.472V110.471V110.471V110.471V110.471V110.471V110.47V110.47V110.47V110.47V110.47V110.469V110.469V110.469V110.469V110.468V110.468V110.468V110.468V110.468V110.467V110.467V110.467V110.467V110.467V110.466V110.466V110.466V110.466V110.466V110.465V110.465V110.465V110.465V110.465V110.464V110.464V110.464V110.464V110.464V110.463V110.463V110.463V110.463V110.462V110.462V110.462V110.462V110.462V110.461V110.461V110.461V110.461V110.461V110.46V110.46V110.46V110.46V110.46V110.459V110.459V110.459V110.459V110.459V110.458V110.458V110.458V110.458V110.458V110.457V110.457V110.457V110.457V110.456V110.456V110.456V110.456V110.456V110.455V110.455V110.455V110.455V110.455V110.454V110.454V110.454V110.454V110.454V110.453V110.453V110.453V110.453V110.453V110.452V110.452V110.452V110.452V110.451V110.451V110.451V110.451V110.451V110.45V110.45V110.45V110.45V110.45V110.449V110.449V110.449V110.449V110.449V110.448V110.448V110.448V110.448V110.448V110.447V110.447V110.447V110.447V110.447V110.446V110.446V110.446V110.446V110.445V110.445V110.445V110.445V110.445V110.444V110.444V110.444V110.444V60.0792C149.759 59.2786 149.441 58.5108 148.875 57.9447C148.309 57.3786 147.541 57.0605 146.74 57.0605H75.6398C74.8392 57.0605 74.0714 57.3786 73.5052 57.9447C72.9391 58.5108 72.6211 59.2786 72.6211 60.0792V110.444V110.444V110.444V110.444V110.445V110.445V110.445V110.445V110.445V110.446V110.446V110.446V110.446V110.447V110.447V110.447V110.447V110.447V110.448V110.448V110.448V110.448V110.448V110.449V110.449V110.449V110.449V110.449V110.45V110.45V110.45V110.45V110.45V110.451V110.451V110.451V110.451V110.451V110.452V110.452V110.452V110.452V110.453V110.453V110.453V110.453V110.453V110.454V110.454V110.454V110.454V110.454V110.455V110.455V110.455V110.455V110.455V110.456V110.456V110.456V110.456V110.456V110.457V110.457V110.457V110.457V110.458V110.458V110.458V110.458V110.458V110.459V110.459V110.459V110.459V110.459V110.46V110.46V110.46V110.46V110.46V110.461V110.461V110.461V110.461V110.461V110.462V110.462V110.462V110.462V110.462V110.463V110.463V110.463V110.463V110.464V110.464V110.464V110.464V110.464V110.465V110.465V110.465V110.465V110.465V110.466V110.466V110.466V110.466V110.466V110.467V110.467V110.467V110.467V110.467V110.468V110.468V110.468V110.468V110.468V110.469V110.469V110.469V110.469V110.47V110.47V110.47V110.47V110.47V110.471V110.471V110.471V110.471V110.471V110.472V110.472V110.472V110.472V110.472V110.473V110.473V110.473V110.473V110.473V110.474V110.474V110.474V110.474V110.475V110.475V110.475V110.475V110.475V110.476V110.476V110.476V110.476V110.476V110.477V110.477V110.477V110.477V110.477V110.478V110.478V110.478V110.478V110.478V110.479V110.479V110.479V110.479V110.479V110.48V110.48V110.48V110.48V110.481V110.481V110.481V110.481V110.481V110.482V110.482V110.482V110.482V110.482V110.483V110.483V110.483V110.483V110.483V110.484V110.484V110.484V110.484V110.484V110.485V110.485V110.485V110.485V110.485V110.486V110.486V110.486V110.486V110.487V110.487V110.487V110.487V110.487V110.488V110.488V110.488V110.488V110.488V110.489V110.489V110.489V110.489V110.489V110.49V110.49V110.49V110.49V110.49V110.491V110.491V110.491V110.491V110.492V110.492V110.492V110.492V110.492V110.493V110.493V110.493V110.493V110.493V110.494V110.494V110.494V110.494V110.494V110.495V110.495V110.495V110.495V110.495V110.496V110.496V110.496V110.496V110.496V110.497V110.497V110.497V110.497V110.498V110.498V110.498V110.498V110.498V110.499V110.499V110.499V110.499V110.499V110.5V110.5V110.5V110.5V110.5V110.501V110.501V110.501V110.501V110.501V110.502V110.502V110.502V110.502V110.502V110.503V110.503V110.503V110.503V110.504V110.504V110.504V110.504V110.504V110.505V110.505V110.505V110.505V110.505V110.506V110.506V110.506V110.506V110.506V110.507V110.507V110.507V110.507V110.507V110.508V110.508V110.508V110.508V110.508V110.509V110.509V110.509V110.509V110.51V110.51V110.51V110.51V110.51V110.511V110.511V110.511V110.511V110.511V110.512V110.512V110.512V110.512V110.512V110.513V110.513V110.513V110.513V110.513V110.514V110.514V110.514V110.514V110.515V110.515V110.515V110.515V110.515V110.516V110.516V110.516V110.516V110.516V110.517V110.517V110.517V110.517V110.517V110.518V110.518V110.518V110.518V110.518V110.519V110.519V110.519V110.519V110.519V110.52V110.52V110.52V110.52V110.521V110.521V110.521V110.521V110.521V110.522V110.522V110.522V110.522V110.522V110.523V110.523V110.523V110.523V110.523V110.524V110.524V110.524V110.524V110.524V110.525V110.525V110.525V110.525V110.525V110.526V110.526V110.526V110.526V110.527V110.527V110.527V110.527V110.527V110.528V110.528V110.528V110.528V110.528V110.529V110.529V110.529V110.529V110.529V110.53V110.53V110.53V110.53V110.53V110.531V110.531V110.531V110.531V110.532V110.532V110.532V110.532V110.532V110.533V110.533V110.533V110.533V110.533V110.534V110.534V110.534V110.534V110.534V110.535V110.535V110.535V110.535V110.535V110.536V110.536V110.536V110.536V110.536V110.537V110.537V110.537V110.537V110.538V110.538V110.538V110.538V110.538V110.539V110.539V110.539V110.539V110.539V110.54V110.54V110.54V110.54V110.54V110.541V110.541V110.541V110.541V110.541V110.542V110.542V110.542V110.542V110.542V110.543V110.543V110.543V110.543V110.544V110.544V110.544V110.544V110.544V110.545V110.545V110.545V110.545V110.545V110.546V110.546V110.546V110.546V110.546V110.547V110.547V110.547V110.547V110.547V110.548V110.548V110.548V110.548V110.549V110.549V110.549V110.549V110.549V110.55V110.55V110.55Z" fill="#FF014E" stroke="#FF014E" stroke-width="2.5"/>
<path opacity="0.43" d="M74.8203 117.131L133.646 58.3047H146.734C147.203 58.3047 147.653 58.491 147.985 58.8227C148.317 59.1544 148.503 59.6043 148.503 60.0734V68.3454L84.762 132.088C80.0021 128.231 76.5335 123.013 74.8203 117.131H74.8203Z" fill="white"/>
<path d="M106.02 94.583V100.026H94.1154V94.583H106.02ZM101.879 100.026L102.604 95.8513C105.399 95.8513 107.711 96.2036 109.54 96.9082C111.403 97.6128 112.801 98.6169 113.732 99.9204C114.699 101.189 115.182 102.704 115.182 104.465C115.182 107.847 113.939 110.366 111.455 112.022C109.005 113.643 105.52 114.453 100.999 114.453C100.171 114.453 99.2224 114.418 98.1527 114.347C97.1175 114.312 96.065 114.206 94.9953 114.03C93.9601 113.854 92.994 113.607 92.0968 113.29C90.3369 112.656 89.457 111.529 89.457 109.908V84.4367C89.457 83.7673 89.6468 83.2389 90.0264 82.8514C90.406 82.4638 90.9063 82.1644 91.5274 81.953C92.7007 81.5655 94.0982 81.2836 95.72 81.1075C97.3418 80.9313 99.0154 80.8432 100.741 80.8432C104.95 80.8432 108.211 81.6007 110.523 83.1156C112.87 84.5953 114.043 86.8676 114.043 89.9326C114.043 91.6237 113.56 93.0681 112.594 94.2659C111.662 95.4638 110.299 96.3797 108.505 97.0139C106.71 97.648 104.485 97.9651 101.828 97.9651L101.465 94.583C103.225 94.583 104.519 94.2307 105.347 93.5261C106.21 92.8215 106.641 91.8174 106.641 90.5139C106.641 89.2809 106.141 88.3297 105.14 87.6603C104.174 86.9909 102.725 86.6562 100.792 86.6562C100.068 86.6562 99.3259 86.6914 98.5668 86.7619C97.8076 86.7971 97.1865 86.8676 96.7034 86.9733V108.164C97.29 108.305 98.0147 108.411 98.8773 108.481C99.7745 108.552 100.62 108.587 101.414 108.587C103.311 108.587 104.812 108.235 105.917 107.53C107.021 106.79 107.573 105.663 107.573 104.148C107.573 102.774 107.09 101.752 106.124 101.083C105.158 100.378 103.743 100.026 101.879 100.026Z" fill="white"/>
<path d="M132.899 104.201H126.067V87.2375L120.011 89.6684C119.494 89.3866 119.028 88.999 118.614 88.5058C118.2 87.9773 117.993 87.2727 117.993 86.392C117.993 84.7362 118.993 83.5383 120.995 82.7985L127.672 80.1562H129.173C130.346 80.1562 131.26 80.5086 131.916 81.2132C132.572 81.8825 132.899 82.8161 132.899 84.014V104.201ZM126.067 99.2862H132.899V113.713C132.623 113.783 132.209 113.872 131.657 113.977C131.105 114.083 130.501 114.136 129.846 114.136C128.534 114.136 127.568 113.907 126.947 113.449C126.36 112.956 126.067 112.092 126.067 110.859V99.2862Z" fill="white"/>
</svg>
