<svg width="221" height="221" viewBox="0 0 221 221" fill="none" xmlns="http://www.w3.org/2000/svg">
<rect width="221" height="221" rx="25" fill="#D1F0FF"/>
<path d="M42.4175 118.986C44.7896 118.79 47.1358 118.355 49.42 117.686C49.9223 117.525 50.3592 117.207 50.6656 116.778C50.972 116.348 51.1314 115.832 51.1202 115.304C50.9939 112.7 50.5862 110.117 49.9041 107.601C48.808 102.601 46.0159 98.1352 42.0016 94.9603C37.6958 92.1947 32.5658 91.0041 27.4821 91.5904C27.2531 91.6104 27.0276 91.6301 26.8021 91.6498C24.4294 91.8457 22.0827 92.2814 19.7978 92.9503C19.2963 93.1115 18.8602 93.4304 18.5545 93.8594C18.2488 94.2885 18.0898 94.8048 18.1012 95.3315C18.2276 97.9358 18.6353 100.519 19.3173 103.035C20.4122 108.035 23.2031 112.502 27.2164 115.678C31.5239 118.441 36.655 119.629 41.7388 119.04C41.9693 119.024 42.1956 119.006 42.4175 118.986Z" fill="#84D8FF"/>
<path d="M81.3202 180.441C85.4186 180.217 89.3575 178.778 92.6353 176.307C96.4444 172.889 98.9536 168.259 99.7373 163.202C100.268 160.648 100.517 158.044 100.479 155.437C100.458 154.91 100.266 154.404 99.9341 153.995C99.6019 153.586 99.1463 153.295 98.6353 153.166C96.0885 152.589 93.4858 152.294 90.8744 152.287C89.8673 152.279 88.8678 152.319 87.9078 152.402C83.8096 152.629 79.8715 154.069 76.5949 156.541C72.786 159.959 70.2768 164.59 69.4929 169.647C68.9622 172.201 68.7135 174.805 68.7511 177.412C68.7727 177.939 68.9639 178.444 69.2961 178.854C69.6284 179.263 70.0839 179.554 70.5949 179.683C73.1378 180.257 75.7361 180.551 78.343 180.558C79.359 180.565 80.3602 180.525 81.3202 180.441Z" fill="#84D8FF"/>
<path d="M50.8719 154.963C54.7574 154.521 58.4821 153.162 61.7383 150.996C63.9516 149.617 66.0068 148 67.8668 146.172C68.2334 145.793 68.4676 145.306 68.5345 144.783C68.6014 144.259 68.4974 143.729 68.2381 143.27C66.8958 141.034 65.3152 138.951 63.5241 137.057C60.1943 133.171 55.6231 130.557 50.5857 129.658C49.4179 129.512 48.2379 129.492 47.0659 129.598C43.1803 130.039 39.4556 131.399 36.1995 133.565C33.9861 134.942 31.9308 136.559 30.0706 138.385C29.7041 138.764 29.4701 139.252 29.4035 139.775C29.3369 140.298 29.4413 140.829 29.7011 141.288C31.0436 143.522 32.6242 145.606 34.4151 147.5C37.7442 151.388 42.3157 154.004 47.354 154.904C47.5334 154.926 47.7001 154.945 47.8757 154.964C48.8724 155.053 49.8752 155.052 50.8719 154.963Z" fill="#84D8FF"/>
<path d="M52.6353 82.0389C53.0652 82.0013 53.4775 81.8502 53.83 81.6011C54.1824 81.352 54.4625 81.0139 54.6415 80.6212C55.666 78.2242 56.4283 75.7235 56.9153 73.1626C58.1213 68.1914 57.5712 62.956 55.3582 58.344C52.6952 53.9714 48.6011 50.6551 43.7709 48.958C41.3573 47.9734 38.8442 47.2532 36.2755 46.8099C35.7531 46.7322 35.2197 46.8267 34.7558 47.0792C34.292 47.3318 33.9231 47.7286 33.705 48.2095C32.6775 50.6046 31.912 53.1038 31.422 55.6635C30.2175 60.6378 30.771 65.8757 32.9885 70.4884C35.649 74.8587 39.739 78.1745 44.565 79.8736C46.9786 80.8582 49.4917 81.5784 52.0605 82.0217C52.2507 82.05 52.4437 82.0558 52.6353 82.0389Z" fill="#84D8FF"/>
<path d="M177.42 119.008C175.048 118.812 172.703 118.376 170.419 117.707C169.917 117.547 169.48 117.228 169.173 116.799C168.867 116.37 168.707 115.853 168.719 115.326C168.845 112.722 169.253 110.139 169.935 107.622C171.03 102.623 173.821 98.1569 177.834 94.9814C182.141 92.2171 187.272 91.0284 192.356 91.6171C192.584 91.6369 192.809 91.6566 193.031 91.676C195.404 91.8719 197.75 92.3077 200.035 92.9766C200.537 93.1368 200.973 93.4546 201.28 93.8827C201.586 94.3109 201.746 94.8264 201.736 95.3528C201.61 97.9571 201.202 100.54 200.52 103.057C199.424 108.056 196.633 112.522 192.619 115.697C188.313 118.463 183.182 119.654 178.098 119.067C177.868 119.047 177.642 119.027 177.42 119.008Z" fill="#84D8FF"/>
<path d="M138.519 180.464C134.421 180.238 130.482 178.797 127.205 176.325C123.396 172.907 120.887 168.276 120.103 163.219C119.572 160.665 119.323 158.061 119.361 155.454C119.383 154.927 119.574 154.421 119.906 154.012C120.238 153.603 120.694 153.312 121.205 153.183C123.748 152.608 126.346 152.315 128.953 152.308C129.967 152.301 130.967 152.34 131.927 152.424C136.026 152.648 139.967 154.087 143.245 156.558C147.055 159.978 149.564 164.61 150.347 169.67C150.877 172.223 151.126 174.827 151.089 177.435C151.067 177.962 150.875 178.467 150.542 178.877C150.209 179.286 149.753 179.576 149.241 179.705C146.698 180.28 144.1 180.574 141.493 180.581C140.481 180.587 139.48 180.547 138.519 180.464Z" fill="#84D8FF"/>
<path d="M168.967 154.991C165.079 154.551 161.352 153.191 158.094 151.024C155.88 149.645 153.825 148.028 151.965 146.2C151.598 145.821 151.364 145.334 151.297 144.811C151.23 144.288 151.334 143.757 151.594 143.298C152.936 141.063 154.517 138.979 156.308 137.085C159.636 133.198 164.207 130.582 169.245 129.681C170.413 129.535 171.593 129.515 172.765 129.621C176.65 130.062 180.375 131.422 183.631 133.587C185.845 134.966 187.9 136.584 189.76 138.411C190.128 138.79 190.364 139.277 190.432 139.801C190.5 140.324 190.397 140.856 190.138 141.316C188.795 143.551 187.215 145.634 185.424 147.529C182.095 151.416 177.523 154.031 172.485 154.931C172.306 154.953 172.139 154.972 171.964 154.989C170.967 155.079 169.964 155.08 168.967 154.991Z" fill="#84D8FF"/>
<path d="M167.202 82.0628C166.772 82.0252 166.36 81.8741 166.007 81.625C165.655 81.3759 165.375 81.0378 165.196 80.645C164.169 78.2487 163.404 75.7484 162.915 73.1877C161.711 68.2152 162.263 62.9794 164.479 58.3679C167.141 53.9961 171.233 50.6797 176.061 48.9814C178.475 47.9969 180.988 47.2766 183.556 46.8333C184.079 46.7548 184.612 46.8487 185.077 47.1006C185.541 47.3525 185.91 47.7489 186.129 48.2296C187.158 50.6275 187.924 53.1298 188.415 55.6927C189.618 60.6647 189.065 65.8998 186.849 70.5106C184.189 74.8815 180.099 78.1979 175.272 79.8975C172.859 80.8821 170.345 81.6023 167.777 82.0456C167.586 82.0739 167.394 82.0797 167.202 82.0628Z" fill="#84D8FF"/>
<path d="M72.1191 110.804V110.818L72.1194 110.831C72.4058 129.049 90.0846 143.24 111.188 143.24C132.291 143.24 149.974 129.043 150.257 110.831L150.257 110.817V110.804V110.804V110.803V110.803V110.803V110.803V110.803V110.802V110.802V110.802V110.802V110.802V110.801V110.801V110.801V110.801V110.801V110.8V110.8V110.8V110.8V110.8V110.799V110.799V110.799V110.799V110.798V110.798V110.798V110.798V110.798V110.797V110.797V110.797V110.797V110.797V110.796V110.796V110.796V110.796V110.796V110.795V110.795V110.795V110.795V110.795V110.794V110.794V110.794V110.794V110.793V110.793V110.793V110.793V110.793V110.792V110.792V110.792V110.792V110.792V110.791V110.791V110.791V110.791V110.791V110.79V110.79V110.79V110.79V110.79V110.789V110.789V110.789V110.789V110.789V110.788V110.788V110.788V110.788V110.787V110.787V110.787V110.787V110.787V110.786V110.786V110.786V110.786V110.786V110.785V110.785V110.785V110.785V110.785V110.784V110.784V110.784V110.784V110.784V110.783V110.783V110.783V110.783V110.783V110.782V110.782V110.782V110.782V110.781V110.781V110.781V110.781V110.781V110.78V110.78V110.78V110.78V110.78V110.779V110.779V110.779V110.779V110.779V110.778V110.778V110.778V110.778V110.778V110.777V110.777V110.777V110.777V110.777V110.776V110.776V110.776V110.776V110.775V110.775V110.775V110.775V110.775V110.774V110.774V110.774V110.774V110.774V110.773V110.773V110.773V110.773V110.773V110.772V110.772V110.772V110.772V110.772V110.771V110.771V110.771V110.771V110.77V110.77V110.77V110.77V110.77V110.769V110.769V110.769V110.769V110.769V110.768V110.768V110.768V110.768V110.768V110.767V110.767V110.767V110.767V110.767V110.766V110.766V110.766V110.766V110.766V110.765V110.765V110.765V110.765V110.764V110.764V110.764V110.764V110.764V110.763V110.763V110.763V110.763V110.763V110.762V110.762V110.762V110.762V110.762V110.761V110.761V110.761V110.761V110.761V110.76V110.76V110.76V110.76V110.76V110.759V110.759V110.759V110.759V110.758V110.758V110.758V110.758V110.758V110.757V110.757V110.757V110.757V110.757V110.756V110.756V110.756V110.756V110.756V110.755V110.755V110.755V110.755V110.755V110.754V110.754V110.754V110.754V110.753V110.753V110.753V110.753V110.753V110.752V110.752V110.752V110.752V110.752V110.751V110.751V110.751V110.751V110.751V110.75V110.75V110.75V110.75V110.75V110.749V110.749V110.749V110.749V110.749V110.748V110.748V110.748V110.748V110.747V110.747V110.747V110.747V110.747V110.746V110.746V110.746V110.746V110.746V110.745V110.745V110.745V110.745V110.745V110.744V110.744V110.744V110.744V110.744V110.743V110.743V110.743V110.743V110.743V110.742V110.742V110.742V110.742V110.741V110.741V110.741V110.741V110.741V110.74V110.74V110.74V110.74V110.74V110.739V110.739V110.739V110.739V110.739V110.738V110.738V110.738V110.738V110.738V110.737V110.737V110.737V110.737V110.736V110.736V110.736V110.736V110.736V110.735V110.735V110.735V110.735V110.735V110.734V110.734V110.734V110.734V110.734V110.733V110.733V110.733V110.733V110.733V110.732V110.732V110.732V110.732V110.732V110.731V110.731V110.731V110.731V110.73V110.73V110.73V110.73V110.73V110.729V110.729V110.729V110.729V110.729V110.728V110.728V110.728V110.728V110.728V110.727V110.727V110.727V110.727V110.727V110.726V110.726V110.726V110.726V110.726V110.725V110.725V110.725V110.725V110.724V110.724V110.724V110.724V110.724V110.723V110.723V110.723V110.723V110.723V110.722V110.722V110.722V110.722V110.722V110.721V110.721V110.721V110.721V110.721V110.72V110.72V110.72V110.72V110.72V110.719V110.719V110.719V110.719V110.718V110.718V110.718V110.718V110.718V110.717V110.717V110.717V110.717V110.717V110.716V110.716V110.716V110.716V110.716V110.715V110.715V110.715V110.715V110.715V110.714V110.714V110.714V110.714V110.713V110.713V110.713V110.713V110.713V110.712V110.712V110.712V110.712V110.712V110.711V110.711V110.711V110.711V110.711V110.71V110.71V110.71V110.71V110.71V110.709V110.709V110.709V110.709V110.709V110.708V110.708V110.708V110.708V110.707V110.707V110.707V110.707V110.707V110.706V110.706V110.706V110.706V110.706V110.705V110.705V110.705V110.705V110.705V110.704V110.704V110.704V110.704V110.704V110.703V110.703V110.703V110.703V110.703V110.702V110.702V110.702V110.702V110.701V110.701V110.701V110.701V110.701V110.7V110.7V110.7V110.7V110.7V110.699V110.699V110.699V110.699V110.699V110.698V110.698V110.698V110.698V60.3331C150.257 59.3999 149.886 58.5049 149.226 57.8451C148.566 57.1852 147.672 56.8145 146.738 56.8145H75.6378C74.7046 56.8145 73.8096 57.1852 73.1497 57.845C72.4899 58.5049 72.1191 59.3999 72.1191 60.3331V110.698V110.698V110.698V110.698V110.699V110.699V110.699V110.699V110.699V110.7V110.7V110.7V110.7V110.7V110.701V110.701V110.701V110.701V110.701V110.702V110.702V110.702V110.702V110.703V110.703V110.703V110.703V110.703V110.704V110.704V110.704V110.704V110.704V110.705V110.705V110.705V110.705V110.705V110.706V110.706V110.706V110.706V110.706V110.707V110.707V110.707V110.707V110.707V110.708V110.708V110.708V110.708V110.709V110.709V110.709V110.709V110.709V110.71V110.71V110.71V110.71V110.71V110.711V110.711V110.711V110.711V110.711V110.712V110.712V110.712V110.712V110.712V110.713V110.713V110.713V110.713V110.713V110.714V110.714V110.714V110.714V110.715V110.715V110.715V110.715V110.715V110.716V110.716V110.716V110.716V110.716V110.717V110.717V110.717V110.717V110.717V110.718V110.718V110.718V110.718V110.718V110.719V110.719V110.719V110.719V110.72V110.72V110.72V110.72V110.72V110.721V110.721V110.721V110.721V110.721V110.722V110.722V110.722V110.722V110.722V110.723V110.723V110.723V110.723V110.723V110.724V110.724V110.724V110.724V110.724V110.725V110.725V110.725V110.725V110.726V110.726V110.726V110.726V110.726V110.727V110.727V110.727V110.727V110.727V110.728V110.728V110.728V110.728V110.728V110.729V110.729V110.729V110.729V110.729V110.73V110.73V110.73V110.73V110.73V110.731V110.731V110.731V110.731V110.732V110.732V110.732V110.732V110.732V110.733V110.733V110.733V110.733V110.733V110.734V110.734V110.734V110.734V110.734V110.735V110.735V110.735V110.735V110.735V110.736V110.736V110.736V110.736V110.736V110.737V110.737V110.737V110.737V110.738V110.738V110.738V110.738V110.738V110.739V110.739V110.739V110.739V110.739V110.74V110.74V110.74V110.74V110.74V110.741V110.741V110.741V110.741V110.741V110.742V110.742V110.742V110.742V110.743V110.743V110.743V110.743V110.743V110.744V110.744V110.744V110.744V110.744V110.745V110.745V110.745V110.745V110.745V110.746V110.746V110.746V110.746V110.746V110.747V110.747V110.747V110.747V110.747V110.748V110.748V110.748V110.748V110.749V110.749V110.749V110.749V110.749V110.75V110.75V110.75V110.75V110.75V110.751V110.751V110.751V110.751V110.751V110.752V110.752V110.752V110.752V110.752V110.753V110.753V110.753V110.753V110.753V110.754V110.754V110.754V110.754V110.755V110.755V110.755V110.755V110.755V110.756V110.756V110.756V110.756V110.756V110.757V110.757V110.757V110.757V110.757V110.758V110.758V110.758V110.758V110.758V110.759V110.759V110.759V110.759V110.76V110.76V110.76V110.76V110.76V110.761V110.761V110.761V110.761V110.761V110.762V110.762V110.762V110.762V110.762V110.763V110.763V110.763V110.763V110.763V110.764V110.764V110.764V110.764V110.764V110.765V110.765V110.765V110.765V110.766V110.766V110.766V110.766V110.766V110.767V110.767V110.767V110.767V110.767V110.768V110.768V110.768V110.768V110.768V110.769V110.769V110.769V110.769V110.769V110.77V110.77V110.77V110.77V110.77V110.771V110.771V110.771V110.771V110.772V110.772V110.772V110.772V110.772V110.773V110.773V110.773V110.773V110.773V110.774V110.774V110.774V110.774V110.774V110.775V110.775V110.775V110.775V110.775V110.776V110.776V110.776V110.776V110.777V110.777V110.777V110.777V110.777V110.778V110.778V110.778V110.778V110.778V110.779V110.779V110.779V110.779V110.779V110.78V110.78V110.78V110.78V110.78V110.781V110.781V110.781V110.781V110.781V110.782V110.782V110.782V110.782V110.783V110.783V110.783V110.783V110.783V110.784V110.784V110.784V110.784V110.784V110.785V110.785V110.785V110.785V110.785V110.786V110.786V110.786V110.786V110.786V110.787V110.787V110.787V110.787V110.787V110.788V110.788V110.788V110.788V110.789V110.789V110.789V110.789V110.789V110.79V110.79V110.79V110.79V110.79V110.791V110.791V110.791V110.791V110.791V110.792V110.792V110.792V110.792V110.792V110.793V110.793V110.793V110.793V110.793V110.794V110.794V110.794V110.794V110.795V110.795V110.795V110.795V110.795V110.796V110.796V110.796V110.796V110.796V110.797V110.797V110.797V110.797V110.797V110.798V110.798V110.798V110.798V110.798V110.799V110.799V110.799V110.799V110.8V110.8V110.8V110.8V110.8V110.801V110.801V110.801V110.801V110.801V110.802V110.802V110.802V110.802V110.802V110.803V110.803V110.803V110.803V110.803V110.804V110.804Z" fill="#1CB0F6" stroke="#1CB0F6" stroke-width="3.5"/>
<path opacity="0.2" d="M74.8203 117.385L133.646 58.5586H146.734C147.203 58.5586 147.653 58.7449 147.985 59.0766C148.317 59.4083 148.503 59.8582 148.503 60.3273V68.5993L84.762 132.342C80.0021 128.485 76.5335 123.267 74.8203 117.385H74.8203Z" fill="white"/>
<path d="M101.11 92.452L101.11 98.014L88.6897 98.014L88.6897 92.452L101.11 92.452ZM96.7897 98.014L97.5457 93.748C100.462 93.748 102.874 94.108 104.782 94.828C106.726 95.548 108.184 96.574 109.156 97.906C110.164 99.202 110.668 100.75 110.668 102.55C110.668 106.006 109.372 108.58 106.78 110.272C104.224 111.928 100.588 112.756 95.8717 112.756C95.0077 112.756 94.0177 112.72 92.9017 112.648C91.8217 112.612 90.7237 112.504 89.6077 112.324C88.5277 112.144 87.5197 111.892 86.5837 111.568C84.7477 110.92 83.8297 109.768 83.8297 108.112L83.8297 82.084C83.8297 81.4 84.0277 80.86 84.4237 80.464C84.8197 80.068 85.3417 79.762 85.9897 79.546C87.2137 79.15 88.6717 78.862 90.3637 78.682C92.0557 78.502 93.8017 78.412 95.6017 78.412C99.9937 78.412 103.396 79.186 105.808 80.734C108.256 82.246 109.48 84.568 109.48 87.7C109.48 89.428 108.976 90.904 107.968 92.128C106.996 93.352 105.574 94.288 103.702 94.936C101.83 95.584 99.5077 95.908 96.7357 95.908L96.3577 92.452C98.1937 92.452 99.5437 92.092 100.408 91.372C101.308 90.652 101.758 89.626 101.758 88.294C101.758 87.034 101.236 86.062 100.192 85.378C99.1837 84.694 97.6717 84.352 95.6557 84.352C94.8997 84.352 94.1257 84.388 93.3337 84.46C92.5417 84.496 91.8937 84.568 91.3897 84.676L91.3897 106.33C92.0017 106.474 92.7577 106.582 93.6577 106.654C94.5937 106.726 95.4757 106.762 96.3037 106.762C98.2837 106.762 99.8497 106.402 101.002 105.682C102.154 104.926 102.73 103.774 102.73 102.226C102.73 100.822 102.226 99.778 101.218 99.094C100.21 98.374 98.7337 98.014 96.7897 98.014ZM115.874 82.354C115.874 81.346 116.288 80.464 117.116 79.708C117.98 78.952 119.15 78.376 120.626 77.98C122.102 77.548 123.776 77.332 125.648 77.332C128.348 77.332 130.634 77.764 132.506 78.628C134.378 79.492 135.782 80.68 136.718 82.192C137.69 83.704 138.176 85.45 138.176 87.43C138.176 89.41 137.618 91.354 136.502 93.262C135.386 95.134 133.604 97.15 131.156 99.31L123.002 106.33L137.852 106.33C138.032 106.618 138.194 107.014 138.338 107.518C138.518 108.022 138.608 108.562 138.608 109.138C138.608 110.074 138.374 110.794 137.906 111.298C137.474 111.766 136.862 112 136.07 112L116.576 112C115.964 111.568 115.478 111.028 115.118 110.38C114.794 109.732 114.632 108.994 114.632 108.166C114.632 107.23 114.83 106.42 115.226 105.736C115.622 105.016 116.072 104.422 116.576 103.954L125.378 95.962C127.466 94.09 128.906 92.542 129.698 91.318C130.49 90.094 130.886 88.888 130.886 87.7C130.886 86.368 130.382 85.288 129.374 84.46C128.366 83.596 126.908 83.164 125 83.164C123.452 83.164 122.066 83.416 120.842 83.92C119.618 84.424 118.61 84.964 117.818 85.54C117.314 85.216 116.864 84.802 116.468 84.298C116.072 83.758 115.874 83.11 115.874 82.354Z" fill="white"/>
</svg>
