<svg width="221" height="221" viewBox="0 0 221 221" fill="none" xmlns="http://www.w3.org/2000/svg">
<rect width="221" height="221" rx="25" fill="#D4FFB4"/>
<path d="M42.4175 115.986C44.7896 115.79 47.1358 115.355 49.42 114.686C49.9223 114.525 50.3592 114.207 50.6656 113.778C50.972 113.348 51.1314 112.832 51.1202 112.304C50.9939 109.7 50.5862 107.117 49.9041 104.601C48.808 99.6012 46.0159 95.1352 42.0016 91.9603C37.6958 89.1947 32.5658 88.0041 27.4821 88.5904C27.2531 88.6104 27.0276 88.6301 26.8021 88.6498C24.4294 88.8457 22.0827 89.2814 19.7978 89.9503C19.2963 90.1115 18.8602 90.4304 18.5545 90.8594C18.2488 91.2885 18.0898 91.8048 18.1012 92.3315C18.2276 94.9358 18.6353 97.5188 19.3173 100.035C20.4122 105.035 23.2031 109.502 27.2164 112.678C31.5239 115.441 36.655 116.629 41.7388 116.04C41.9693 116.024 42.1956 116.006 42.4175 115.986Z" fill="#B1EE81"/>
<path d="M81.3202 177.439C85.4186 177.215 89.3575 175.776 92.6353 173.306C96.4444 169.888 98.9536 165.257 99.7373 160.2C100.268 157.646 100.517 155.042 100.479 152.435C100.458 151.908 100.266 151.402 99.9341 150.993C99.6019 150.584 99.1463 150.293 98.6353 150.164C96.0885 149.587 93.4858 149.292 90.8744 149.285C89.8673 149.277 88.8678 149.317 87.9078 149.401C83.8096 149.627 79.8715 151.068 76.5949 153.539C72.786 156.957 70.2768 161.588 69.4929 166.645C68.9622 169.199 68.7135 171.803 68.7511 174.41C68.7727 174.937 68.9639 175.442 69.2961 175.852C69.6284 176.261 70.0839 176.552 70.5949 176.681C73.1378 177.255 75.7361 177.549 78.343 177.556C79.359 177.563 80.3602 177.523 81.3202 177.439Z" fill="#B1EE81"/>
<path d="M50.8719 151.963C54.7574 151.521 58.4821 150.162 61.7383 147.996C63.9516 146.617 66.0068 145 67.8668 143.172C68.2334 142.793 68.4676 142.306 68.5345 141.783C68.6014 141.259 68.4974 140.729 68.2381 140.27C66.8958 138.034 65.3152 135.951 63.5241 134.057C60.1943 130.171 55.6231 127.557 50.5857 126.658C49.4179 126.512 48.2379 126.492 47.0659 126.598C43.1803 127.039 39.4556 128.399 36.1995 130.565C33.9861 131.942 31.9308 133.559 30.0706 135.385C29.7041 135.764 29.4701 136.252 29.4035 136.775C29.3369 137.298 29.4413 137.829 29.7011 138.288C31.0436 140.522 32.6242 142.606 34.4151 144.5C37.7442 148.388 42.3157 151.004 47.354 151.904C47.5334 151.926 47.7001 151.945 47.8757 151.964C48.8724 152.053 49.8752 152.052 50.8719 151.963Z" fill="#B1EE81"/>
<path d="M52.6353 79.0389C53.0652 79.0013 53.4775 78.8502 53.83 78.6011C54.1824 78.352 54.4625 78.0139 54.6415 77.6212C55.666 75.2242 56.4283 72.7235 56.9153 70.1626C58.1213 65.1914 57.5712 59.956 55.3582 55.344C52.6952 50.9714 48.6011 47.6551 43.7709 45.958C41.3573 44.9734 38.8442 44.2532 36.2755 43.8099C35.7531 43.7322 35.2197 43.8267 34.7558 44.0792C34.292 44.3318 33.9231 44.7286 33.705 45.2095C32.6775 47.6046 31.912 50.1038 31.422 52.6635C30.2175 57.6378 30.771 62.8757 32.9885 67.4884C35.649 71.8587 39.739 75.1745 44.565 76.8736C46.9786 77.8582 49.4917 78.5784 52.0605 79.0217C52.2507 79.05 52.4437 79.0558 52.6353 79.0389Z" fill="#B1EE81"/>
<path d="M177.424 116.01C175.052 115.814 172.706 115.378 170.423 114.709C169.92 114.549 169.484 114.23 169.177 113.801C168.871 113.372 168.711 112.855 168.723 112.328C168.849 109.723 169.257 107.14 169.939 104.624C171.034 99.625 173.825 95.1589 177.838 91.9833C182.145 89.219 187.276 88.0304 192.36 88.619C192.587 88.6389 192.813 88.6586 193.035 88.678C195.408 88.8739 197.754 89.3096 200.039 89.9785C200.541 90.1388 200.977 90.4566 201.283 90.8847C201.59 91.3128 201.75 91.8284 201.74 92.3547C201.613 94.959 201.206 97.542 200.524 100.059C199.428 105.058 196.637 109.524 192.623 112.699C188.317 115.465 183.186 116.656 178.102 116.069C177.872 116.049 177.645 116.029 177.424 116.01Z" fill="#B1EE81"/>
<path d="M138.523 177.466C134.425 177.239 130.486 175.799 127.209 173.327C123.4 169.908 120.89 165.278 120.107 160.221C119.576 157.667 119.327 155.063 119.365 152.456C119.387 151.929 119.578 151.423 119.91 151.014C120.242 150.605 120.698 150.314 121.209 150.185C123.752 149.61 126.35 149.317 128.957 149.31C129.971 149.303 130.97 149.342 131.931 149.426C136.03 149.65 139.97 151.089 143.249 153.56C147.059 156.98 149.568 161.612 150.351 166.672C150.881 169.225 151.13 171.829 151.092 174.436C151.071 174.964 150.879 175.469 150.546 175.879C150.213 176.288 149.757 176.578 149.245 176.707C146.702 177.282 144.104 177.576 141.497 177.583C140.485 177.589 139.483 177.549 138.523 177.466Z" fill="#B1EE81"/>
<path d="M168.971 151.993C165.083 151.553 161.356 150.193 158.097 148.026C155.884 146.647 153.829 145.03 151.969 143.202C151.602 142.823 151.368 142.336 151.301 141.813C151.234 141.289 151.338 140.759 151.598 140.3C152.94 138.064 154.521 135.981 156.312 134.087C159.64 130.2 164.211 127.584 169.249 126.683C170.417 126.537 171.597 126.517 172.769 126.623C176.654 127.064 180.379 128.424 183.635 130.589C185.849 131.968 187.904 133.585 189.764 135.413C190.132 135.792 190.368 136.279 190.436 136.803C190.504 137.326 190.401 137.858 190.142 138.318C188.799 140.553 187.219 142.636 185.428 144.531C182.099 148.418 177.527 151.033 172.489 151.933C172.31 151.955 172.143 151.974 171.967 151.991C170.971 152.081 169.968 152.082 168.971 151.993Z" fill="#B1EE81"/>
<path d="M167.206 79.0648C166.776 79.0271 166.364 78.8761 166.011 78.627C165.659 78.3779 165.379 78.0397 165.2 77.647C164.173 75.2507 163.408 72.7504 162.919 70.1896C161.715 65.2172 162.267 59.9813 164.483 55.3698C167.145 50.998 171.237 47.6816 176.065 45.9834C178.479 44.9988 180.992 44.2786 183.56 43.8353C184.083 43.7568 184.616 43.8506 185.08 44.1025C185.545 44.3545 185.914 44.7508 186.133 45.2315C187.162 47.6294 187.928 50.1317 188.419 52.6946C189.622 57.6667 189.068 62.9018 186.853 67.5125C184.193 71.8835 180.102 75.1999 175.276 76.8995C172.863 77.884 170.349 78.6043 167.781 79.0475C167.59 79.0758 167.397 79.0816 167.206 79.0648Z" fill="#B1EE81"/>
<path d="M72.6211 110.552V110.562L72.6212 110.572C72.9022 128.437 90.2729 142.488 111.19 142.488C132.107 142.488 149.482 128.431 149.759 110.571L149.759 110.562V110.552V110.552V110.551V110.551V110.551V110.551V110.551V110.55V110.55V110.55V110.55V110.55V110.549V110.549V110.549V110.549V110.549V110.548V110.548V110.548V110.548V110.548V110.547V110.547V110.547V110.547V110.547V110.546V110.546V110.546V110.546V110.545V110.545V110.545V110.545V110.545V110.544V110.544V110.544V110.544V110.544V110.543V110.543V110.543V110.543V110.543V110.542V110.542V110.542V110.542V110.542V110.541V110.541V110.541V110.541V110.541V110.54V110.54V110.54V110.54V110.539V110.539V110.539V110.539V110.539V110.538V110.538V110.538V110.538V110.538V110.537V110.537V110.537V110.537V110.537V110.536V110.536V110.536V110.536V110.536V110.535V110.535V110.535V110.535V110.534V110.534V110.534V110.534V110.534V110.533V110.533V110.533V110.533V110.533V110.532V110.532V110.532V110.532V110.532V110.531V110.531V110.531V110.531V110.531V110.53V110.53V110.53V110.53V110.53V110.529V110.529V110.529V110.529V110.528V110.528V110.528V110.528V110.528V110.527V110.527V110.527V110.527V110.527V110.526V110.526V110.526V110.526V110.526V110.525V110.525V110.525V110.525V110.525V110.524V110.524V110.524V110.524V110.524V110.523V110.523V110.523V110.523V110.522V110.522V110.522V110.522V110.522V110.521V110.521V110.521V110.521V110.521V110.52V110.52V110.52V110.52V110.52V110.519V110.519V110.519V110.519V110.519V110.518V110.518V110.518V110.518V110.518V110.517V110.517V110.517V110.517V110.516V110.516V110.516V110.516V110.516V110.515V110.515V110.515V110.515V110.515V110.514V110.514V110.514V110.514V110.514V110.513V110.513V110.513V110.513V110.513V110.512V110.512V110.512V110.512V110.511V110.511V110.511V110.511V110.511V110.51V110.51V110.51V110.51V110.51V110.509V110.509V110.509V110.509V110.509V110.508V110.508V110.508V110.508V110.508V110.507V110.507V110.507V110.507V110.507V110.506V110.506V110.506V110.506V110.505V110.505V110.505V110.505V110.505V110.504V110.504V110.504V110.504V110.504V110.503V110.503V110.503V110.503V110.503V110.502V110.502V110.502V110.502V110.502V110.501V110.501V110.501V110.501V110.501V110.5V110.5V110.5V110.5V110.499V110.499V110.499V110.499V110.499V110.498V110.498V110.498V110.498V110.498V110.497V110.497V110.497V110.497V110.497V110.496V110.496V110.496V110.496V110.496V110.495V110.495V110.495V110.495V110.494V110.494V110.494V110.494V110.494V110.493V110.493V110.493V110.493V110.493V110.492V110.492V110.492V110.492V110.492V110.491V110.491V110.491V110.491V110.491V110.49V110.49V110.49V110.49V110.49V110.489V110.489V110.489V110.489V110.488V110.488V110.488V110.488V110.488V110.487V110.487V110.487V110.487V110.487V110.486V110.486V110.486V110.486V110.486V110.485V110.485V110.485V110.485V110.485V110.484V110.484V110.484V110.484V110.484V110.483V110.483V110.483V110.483V110.482V110.482V110.482V110.482V110.482V110.481V110.481V110.481V110.481V110.481V110.48V110.48V110.48V110.48V110.48V110.479V110.479V110.479V110.479V110.479V110.478V110.478V110.478V110.478V110.477V110.477V110.477V110.477V110.477V110.476V110.476V110.476V110.476V110.476V110.475V110.475V110.475V110.475V110.475V110.474V110.474V110.474V110.474V110.474V110.473V110.473V110.473V110.473V110.473V110.472V110.472V110.472V110.472V110.471V110.471V110.471V110.471V110.471V110.47V110.47V110.47V110.47V110.47V110.469V110.469V110.469V110.469V110.469V110.468V110.468V110.468V110.468V110.468V110.467V110.467V110.467V110.467V110.467V110.466V110.466V110.466V110.466V110.465V110.465V110.465V110.465V110.465V110.464V110.464V110.464V110.464V110.464V110.463V110.463V110.463V110.463V110.463V110.462V110.462V110.462V110.462V110.462V110.461V110.461V110.461V110.461V110.461V110.46V110.46V110.46V110.46V110.459V110.459V110.459V110.459V110.459V110.458V110.458V110.458V110.458V110.458V110.457V110.457V110.457V110.457V110.457V110.456V110.456V110.456V110.456V110.456V110.455V110.455V110.455V110.455V110.454V110.454V110.454V110.454V110.454V110.453V110.453V110.453V110.453V110.453V110.452V110.452V110.452V110.452V110.452V110.451V110.451V110.451V110.451V110.451V110.45V110.45V110.45V110.45V110.45V110.449V110.449V110.449V110.449V110.448V110.448V110.448V110.448V110.448V110.447V110.447V110.447V110.447V110.447V110.446V110.446V110.446V110.446V60.0812C149.759 59.2806 149.441 58.5128 148.875 57.9467C148.309 57.3805 147.541 57.0625 146.74 57.0625H75.6398C74.8392 57.0625 74.0714 57.3805 73.5052 57.9466C72.9391 58.5128 72.6211 59.2806 72.6211 60.0812V110.446V110.446V110.446V110.446V110.447V110.447V110.447V110.447V110.447V110.448V110.448V110.448V110.448V110.448V110.449V110.449V110.449V110.449V110.45V110.45V110.45V110.45V110.45V110.451V110.451V110.451V110.451V110.451V110.452V110.452V110.452V110.452V110.452V110.453V110.453V110.453V110.453V110.453V110.454V110.454V110.454V110.454V110.454V110.455V110.455V110.455V110.455V110.456V110.456V110.456V110.456V110.456V110.457V110.457V110.457V110.457V110.457V110.458V110.458V110.458V110.458V110.458V110.459V110.459V110.459V110.459V110.459V110.46V110.46V110.46V110.46V110.461V110.461V110.461V110.461V110.461V110.462V110.462V110.462V110.462V110.462V110.463V110.463V110.463V110.463V110.463V110.464V110.464V110.464V110.464V110.464V110.465V110.465V110.465V110.465V110.465V110.466V110.466V110.466V110.466V110.467V110.467V110.467V110.467V110.467V110.468V110.468V110.468V110.468V110.468V110.469V110.469V110.469V110.469V110.469V110.47V110.47V110.47V110.47V110.47V110.471V110.471V110.471V110.471V110.471V110.472V110.472V110.472V110.472V110.473V110.473V110.473V110.473V110.473V110.474V110.474V110.474V110.474V110.474V110.475V110.475V110.475V110.475V110.475V110.476V110.476V110.476V110.476V110.476V110.477V110.477V110.477V110.477V110.477V110.478V110.478V110.478V110.478V110.479V110.479V110.479V110.479V110.479V110.48V110.48V110.48V110.48V110.48V110.481V110.481V110.481V110.481V110.481V110.482V110.482V110.482V110.482V110.482V110.483V110.483V110.483V110.483V110.484V110.484V110.484V110.484V110.484V110.485V110.485V110.485V110.485V110.485V110.486V110.486V110.486V110.486V110.486V110.487V110.487V110.487V110.487V110.487V110.488V110.488V110.488V110.488V110.488V110.489V110.489V110.489V110.489V110.49V110.49V110.49V110.49V110.49V110.491V110.491V110.491V110.491V110.491V110.492V110.492V110.492V110.492V110.492V110.493V110.493V110.493V110.493V110.493V110.494V110.494V110.494V110.494V110.494V110.495V110.495V110.495V110.495V110.496V110.496V110.496V110.496V110.496V110.497V110.497V110.497V110.497V110.497V110.498V110.498V110.498V110.498V110.498V110.499V110.499V110.499V110.499V110.499V110.5V110.5V110.5V110.5V110.501V110.501V110.501V110.501V110.501V110.502V110.502V110.502V110.502V110.502V110.503V110.503V110.503V110.503V110.503V110.504V110.504V110.504V110.504V110.504V110.505V110.505V110.505V110.505V110.505V110.506V110.506V110.506V110.506V110.507V110.507V110.507V110.507V110.507V110.508V110.508V110.508V110.508V110.508V110.509V110.509V110.509V110.509V110.509V110.51V110.51V110.51V110.51V110.51V110.511V110.511V110.511V110.511V110.511V110.512V110.512V110.512V110.512V110.513V110.513V110.513V110.513V110.513V110.514V110.514V110.514V110.514V110.514V110.515V110.515V110.515V110.515V110.515V110.516V110.516V110.516V110.516V110.516V110.517V110.517V110.517V110.517V110.518V110.518V110.518V110.518V110.518V110.519V110.519V110.519V110.519V110.519V110.52V110.52V110.52V110.52V110.52V110.521V110.521V110.521V110.521V110.521V110.522V110.522V110.522V110.522V110.522V110.523V110.523V110.523V110.523V110.524V110.524V110.524V110.524V110.524V110.525V110.525V110.525V110.525V110.525V110.526V110.526V110.526V110.526V110.526V110.527V110.527V110.527V110.527V110.527V110.528V110.528V110.528V110.528V110.528V110.529V110.529V110.529V110.529V110.53V110.53V110.53V110.53V110.53V110.531V110.531V110.531V110.531V110.531V110.532V110.532V110.532V110.532V110.532V110.533V110.533V110.533V110.533V110.533V110.534V110.534V110.534V110.534V110.534V110.535V110.535V110.535V110.535V110.536V110.536V110.536V110.536V110.536V110.537V110.537V110.537V110.537V110.537V110.538V110.538V110.538V110.538V110.538V110.539V110.539V110.539V110.539V110.539V110.54V110.54V110.54V110.54V110.541V110.541V110.541V110.541V110.541V110.542V110.542V110.542V110.542V110.542V110.543V110.543V110.543V110.543V110.543V110.544V110.544V110.544V110.544V110.544V110.545V110.545V110.545V110.545V110.545V110.546V110.546V110.546V110.546V110.547V110.547V110.547V110.547V110.547V110.548V110.548V110.548V110.548V110.548V110.549V110.549V110.549V110.549V110.549V110.55V110.55V110.55V110.55V110.55V110.551V110.551V110.551V110.551V110.551V110.552V110.552Z" fill="#58CC02" stroke="#58CC02" stroke-width="2.5"/>
<path opacity="0.43" d="M74.8203 117.131L133.646 58.3047H146.734C147.203 58.3047 147.653 58.491 147.985 58.8227C148.317 59.1544 148.503 59.6043 148.503 60.0734V68.3454L84.762 132.088C80.0021 128.231 76.5335 123.013 74.8203 117.131H74.8203Z" fill="white"/>
<path d="M114.475 83.596C114.475 84.352 114.259 85.036 113.827 85.648C113.431 86.224 112.963 86.674 112.423 86.998C111.523 86.386 110.497 85.846 109.345 85.378C108.229 84.874 106.861 84.622 105.241 84.622C103.261 84.622 101.551 85.054 100.111 85.918C98.7069 86.746 97.6089 87.988 96.8169 89.644C96.0249 91.264 95.6289 93.262 95.6289 95.638C95.6289 99.238 96.5289 101.974 98.3289 103.846C100.129 105.682 102.559 106.6 105.619 106.6C107.239 106.6 108.625 106.384 109.777 105.952C110.929 105.484 111.955 104.962 112.855 104.386C113.395 104.746 113.827 105.232 114.151 105.844C114.511 106.456 114.691 107.158 114.691 107.95C114.691 108.598 114.511 109.21 114.151 109.786C113.791 110.362 113.197 110.866 112.369 111.298C111.649 111.658 110.641 112 109.345 112.324C108.085 112.684 106.519 112.864 104.647 112.864C101.479 112.864 98.5989 112.252 96.0069 111.028C93.4509 109.768 91.4169 107.878 89.9049 105.358C88.3929 102.802 87.6369 99.562 87.6369 95.638C87.6369 91.894 88.3749 88.744 89.8509 86.188C91.3629 83.596 93.3789 81.634 95.8989 80.302C98.4189 78.97 101.191 78.304 104.215 78.304C106.339 78.304 108.157 78.556 109.669 79.06C111.217 79.528 112.405 80.158 113.233 80.95C114.061 81.742 114.475 82.624 114.475 83.596ZM133.211 102.28L126.083 102.28L126.083 84.946L119.765 87.43C119.225 87.142 118.739 86.746 118.307 86.242C117.875 85.702 117.659 84.982 117.659 84.082C117.659 82.39 118.703 81.166 120.791 80.41L127.757 77.71L129.323 77.71C130.547 77.71 131.501 78.07 132.185 78.79C132.869 79.474 133.211 80.428 133.211 81.652L133.211 102.28ZM126.083 97.258L133.211 97.258L133.211 112C132.923 112.072 132.491 112.162 131.915 112.27C131.339 112.378 130.709 112.432 130.025 112.432C128.657 112.432 127.649 112.198 127.001 111.73C126.389 111.226 126.083 110.344 126.083 109.084L126.083 97.258Z" fill="white"/>
</svg>
