<svg width="216" height="216" viewBox="0 0 216 216" fill="none" xmlns="http://www.w3.org/2000/svg">
<rect width="216" height="216" rx="15" fill="#004B8C"/>
<path d="M118.443 135.587C113.527 135.587 108.611 135.562 103.697 135.606C102.735 135.614 102.459 135.409 102.651 134.409C106.045 116.698 109.412 98.9803 112.767 81.263C112.907 80.5228 113.161 80.2141 113.994 80.2168C123.554 80.2496 133.11 80.2496 142.669 80.2195C143.582 80.2168 143.749 80.5036 143.574 81.3259C143.153 83.3254 142.757 85.3331 142.423 87.3491C142.284 88.1931 141.915 88.4171 141.082 88.4117C134.845 88.3762 128.609 88.4144 122.376 88.3707C121.378 88.3625 120.988 88.5947 120.805 89.6518C120.108 93.6782 119.299 97.6882 118.479 101.693C118.282 102.649 118.476 102.917 119.493 102.908C125.319 102.859 131.145 102.914 136.972 102.859C138.081 102.848 138.275 103.151 138.035 104.173C137.589 106.074 137.218 107.995 136.911 109.923C136.775 110.781 136.422 110.999 135.586 110.994C129.76 110.958 123.934 110.999 118.107 110.95C117.115 110.942 116.703 111.191 116.522 112.212C115.7 116.864 114.812 121.505 113.888 126.138C113.691 127.132 113.82 127.457 114.943 127.449C121.542 127.395 128.142 127.444 134.742 127.4C135.807 127.392 136.07 127.624 135.81 128.692C135.351 130.588 134.966 132.511 134.706 134.445C134.567 135.491 134.089 135.614 133.187 135.609C128.276 135.565 123.36 135.587 118.443 135.587Z" fill="white"/>
<path d="M182.392 136.331C172.937 135.828 164.312 130.267 162.088 119.532C159.205 105.628 165.17 86.744 184.666 80.8793C191.113 78.9398 197.666 78.8824 204.189 80.6826C204.929 80.8874 205.632 81.2289 206.361 81.4747C207.039 81.7042 207.118 82.0866 206.875 82.7286C206.132 84.6789 205.419 86.6457 204.746 88.6207C204.489 89.3719 204.252 89.5412 203.405 89.2298C198.726 87.5089 193.875 87.1046 189.038 88.2328C179.919 90.3607 174.847 96.5615 172.59 105.325C171.639 109.015 171.483 112.776 172.229 116.546C173.601 123.493 178.37 127.713 185.437 128.174C189.656 128.45 193.802 128.046 197.783 126.536C198.42 126.295 198.66 126.347 198.729 127.065C198.926 129.101 199.131 131.138 199.417 133.16C199.521 133.884 199.218 134.124 198.644 134.34C195.247 135.599 191.741 136.276 188.117 136.342C186.207 136.167 184.3 136.178 182.392 136.331Z" fill="white"/>
<path d="M37.6983 80.236C44.0274 80.236 50.3565 80.2524 56.6856 80.2169C57.6584 80.2114 57.959 80.4108 57.7158 81.4352C57.2321 83.4675 56.8167 85.519 56.497 87.5841C56.3576 88.4828 55.9832 88.6521 55.1634 88.6439C50.7937 88.6084 46.4213 88.6603 42.0516 88.6002C41.076 88.5866 40.7481 88.8707 40.5704 89.824C37.783 104.744 34.9437 119.653 32.1508 134.571C32.0032 135.36 31.7299 135.617 30.9292 135.6C28.426 135.551 25.9201 135.551 23.4168 135.6C22.5232 135.617 22.2964 135.464 22.485 134.483C25.3107 119.713 28.0708 104.927 30.9101 90.1545C31.1615 88.8461 30.9019 88.5729 29.6093 88.5975C25.4227 88.6767 21.2306 88.5975 17.044 88.6494C16.1012 88.6603 15.8662 88.4036 16.0657 87.5049C16.5166 85.4643 16.9702 83.4184 17.2872 81.356C17.4348 80.4027 17.8365 80.2169 18.711 80.2196C25.0401 80.2524 31.3692 80.236 37.6983 80.236Z" fill="white"/>
<path d="M145.379 135.585C144.196 135.585 143.004 135.501 141.829 135.61C140.649 135.719 140.651 135.26 140.837 134.307C142.821 124.044 144.756 113.776 146.71 103.508C148.112 96.1436 149.538 88.7819 150.905 81.4092C151.069 80.5296 151.337 80.1854 152.277 80.2128C154.643 80.2811 157.012 80.2893 159.379 80.21C160.442 80.1745 160.704 80.445 160.499 81.5048C158.996 89.2216 157.543 96.9467 156.07 104.669C154.19 114.533 152.285 124.394 150.457 134.269C150.252 135.37 149.853 135.695 148.79 135.605C147.661 135.512 146.516 135.585 145.379 135.585Z" fill="white"/>
<path d="M182.395 136.331C184.302 135.963 186.209 135.949 188.117 136.34C186.207 136.449 184.299 136.465 182.395 136.331Z" fill="white"/>
<path d="M71.4707 136.335C73.1049 135.969 74.7391 135.969 76.3706 136.335C74.7391 136.458 73.1049 136.461 71.4707 136.335Z" fill="white"/>
<path d="M103.071 96.546C101.68 88.3703 97.152 82.4154 88.8635 80.2984C79.3972 77.8809 70.6933 79.834 63.2602 86.3161C57.8302 91.0528 54.7804 97.2563 53.138 104.173C51.6104 110.606 51.3098 117.036 53.7092 123.36C56.4365 130.549 62.7984 135.84 71.4694 136.335C73.1036 136.176 74.7378 136.179 76.3693 136.335C76.7327 136.329 77.0989 136.359 77.4569 136.313C85.7044 135.223 92.3778 131.393 97.029 124.491C102.732 116.022 104.779 106.59 103.071 96.546ZM88.6285 120.295C86.2155 124.414 82.723 127.219 77.9816 128.143C69.8325 129.73 63.5963 125.291 62.5032 117.02C61.4538 109.068 63.1864 101.619 67.5643 94.9098C70.4966 90.4163 74.6558 87.63 80.2061 87.4552C87.3987 87.2285 91.8941 91.0036 93.0501 98.114C93.2988 99.6464 93.3999 101.184 93.3944 102.739C93.2305 108.975 91.7985 114.881 88.6285 120.295Z" fill="white"/>
</svg>
